<svg width="46" height="62" viewBox="0 0 46 62" fill="none" xmlns="http://www.w3.org/2000/svg">
<g id="Calculadora">
<path id="layer" d="M43 1H3C1.89543 1 1 1.89543 1 3V59C1 60.1046 1.89543 61 3 61H43C44.1046 61 45 60.1046 45 59V3C45 1.89543 44.1046 1 43 1Z" stroke="#202020" stroke-width="2" stroke-miterlimit="10" stroke-linecap="round" stroke-linejoin="round"/>
<path id="layer2" d="M12.5 54C13.3284 54 14 53.3284 14 52.5C14 51.6716 13.3284 51 12.5 51C11.6716 51 11 51.6716 11 52.5C11 53.3284 11.6716 54 12.5 54Z" stroke="#202020" stroke-width="2" stroke-miterlimit="10" stroke-linecap="round" stroke-linejoin="round"/>
<path id="layer2_2" d="M23 54C23.8284 54 24.5 53.3284 24.5 52.5C24.5 51.6716 23.8284 51 23 51C22.1716 51 21.5 51.6716 21.5 52.5C21.5 53.3284 22.1716 54 23 54Z" stroke="#202020" stroke-width="2" stroke-miterlimit="10" stroke-linecap="round" stroke-linejoin="round"/>
<path id="layer2_3" d="M33.5 54C34.3284 54 35 53.3284 35 52.5C35 51.6716 34.3284 51 33.5 51C32.6716 51 32 51.6716 32 52.5C32 53.3284 32.6716 54 33.5 54Z" stroke="#202020" stroke-width="2" stroke-miterlimit="10" stroke-linecap="round" stroke-linejoin="round"/>
<path id="layer2_4" d="M12.5 43C13.3284 43 14 42.3284 14 41.5C14 40.6716 13.3284 40 12.5 40C11.6716 40 11 40.6716 11 41.5C11 42.3284 11.6716 43 12.5 43Z" stroke="#202020" stroke-width="2" stroke-miterlimit="10" stroke-linecap="round" stroke-linejoin="round"/>
<path id="layer2_5" d="M23 43C23.8284 43 24.5 42.3284 24.5 41.5C24.5 40.6716 23.8284 40 23 40C22.1716 40 21.5 40.6716 21.5 41.5C21.5 42.3284 22.1716 43 23 43Z" stroke="#202020" stroke-width="2" stroke-miterlimit="10" stroke-linecap="round" stroke-linejoin="round"/>
<path id="layer2_6" d="M33.5 43C34.3284 43 35 42.3284 35 41.5C35 40.6716 34.3284 40 33.5 40C32.6716 40 32 40.6716 32 41.5C32 42.3284 32.6716 43 33.5 43Z" stroke="#202020" stroke-width="2" stroke-miterlimit="10" stroke-linecap="round" stroke-linejoin="round"/>
<path id="layer2_7" d="M12.5 32C13.3284 32 14 31.3284 14 30.5C14 29.6716 13.3284 29 12.5 29C11.6716 29 11 29.6716 11 30.5C11 31.3284 11.6716 32 12.5 32Z" stroke="#202020" stroke-width="2" stroke-miterlimit="10" stroke-linecap="round" stroke-linejoin="round"/>
<path id="layer2_8" d="M23 32C23.8284 32 24.5 31.3284 24.5 30.5C24.5 29.6716 23.8284 29 23 29C22.1716 29 21.5 29.6716 21.5 30.5C21.5 31.3284 22.1716 32 23 32Z" stroke="#202020" stroke-width="2" stroke-miterlimit="10" stroke-linecap="round" stroke-linejoin="round"/>
<path id="layer2_9" d="M33.5 32C34.3284 32 35 31.3284 35 30.5C35 29.6716 34.3284 29 33.5 29C32.6716 29 32 29.6716 32 30.5C32 31.3284 32.6716 32 33.5 32Z" stroke="#202020" stroke-width="2" stroke-miterlimit="10" stroke-linecap="round" stroke-linejoin="round"/>
<path id="layer1" d="M33 11V15M7 7H39V21H7V7Z" stroke="#202020" stroke-width="2" stroke-miterlimit="10" stroke-linecap="round" stroke-linejoin="round"/>
</g>
</svg>
