<svg width="72" height="72" viewBox="0 0 72 72" fill="none" xmlns="http://www.w3.org/2000/svg">
<path id="Figma" d="M0 14.4C0 6.4471 9.21014 0 20.5714 0H51.4286C62.7897 0 72 6.4471 72 14.4C72 18.7009 69.3062 22.5614 65.0355 25.2C69.3062 27.8386 72 31.6991 72 36C72 43.9528 62.7897 50.4 51.4286 50.4C47.6815 50.4 44.1684 49.6987 41.1429 48.4736V57.6C41.1429 65.5528 31.9325 72 20.5714 72C9.21014 72 0 65.5528 0 57.6C0 53.2991 2.69362 49.4384 6.96435 46.8C2.69362 44.1616 0 40.3009 0 36C0 31.6991 2.69362 27.8386 6.96435 25.2C2.69362 22.5614 0 18.7009 0 14.4ZM30.8571 28.8H20.5714C14.8908 28.8 10.2857 32.0234 10.2857 36C10.2857 39.9766 14.8908 43.2 20.5714 43.2H30.8571V28.8ZM41.1429 36C41.1429 39.9766 45.7478 43.2 51.4286 43.2C57.1094 43.2 61.7143 39.9766 61.7143 36C61.7143 32.0234 57.1094 28.8 51.4286 28.8C45.7478 28.8 41.1429 32.0234 41.1429 36ZM51.4286 21.6C57.1094 21.6 61.7143 18.3765 61.7143 14.4C61.7143 10.4235 57.1094 7.2 51.4286 7.2H41.1429V21.6H51.4286ZM20.5714 7.2C14.8908 7.2 10.2857 10.4235 10.2857 14.4C10.2857 18.3765 14.8908 21.6 20.5714 21.6H30.8571V7.2H20.5714ZM30.8571 50.4H20.5714C14.8908 50.4 10.2857 53.6234 10.2857 57.6C10.2857 61.5766 14.8908 64.8 20.5714 64.8C26.2522 64.8 30.8571 61.5766 30.8571 57.6V50.4Z" fill="#EDEDED"/>
</svg>
