<svg width="42" height="42" viewBox="0 0 42 42" fill="none" xmlns="http://www.w3.org/2000/svg">
<g id="Git-footer">
<path id="Vector" d="M21 0C9.3975 0 0 9.6352 0 21.5312C0 31.0587 6.01125 39.106 14.3587 41.9589C15.4087 42.1473 15.8025 41.5013 15.8025 40.9361C15.8025 40.4248 15.7763 38.7292 15.7763 36.926C10.5 37.9218 9.135 35.6072 8.715 34.396C8.47875 33.777 7.455 31.8661 6.5625 31.3548C5.8275 30.9511 4.7775 29.9552 6.53625 29.9283C8.19 29.9014 9.37125 31.4893 9.765 32.1353C11.655 35.3919 14.6738 34.4768 15.8813 33.9116C16.065 32.5121 16.6162 31.5701 17.22 31.0318C12.5475 30.4935 7.665 28.6365 7.665 20.4008C7.665 18.0593 8.47875 16.1215 9.8175 14.6143C9.6075 14.076 8.8725 11.8691 10.0275 8.90852C10.0275 8.90852 11.7863 8.34333 15.8025 11.1155C17.4825 10.631 19.2675 10.3888 21.0525 10.3888C22.8375 10.3888 24.6225 10.631 26.3025 11.1155C30.3188 8.31641 32.0775 8.90852 32.0775 8.90852C33.2325 11.8691 32.4975 14.076 32.2875 14.6143C33.6263 16.1215 34.44 18.0324 34.44 20.4008C34.44 28.6634 29.5312 30.4935 24.8588 31.0318C25.62 31.7046 26.2763 32.9965 26.2763 35.0151C26.2763 37.8949 26.25 40.2095 26.25 40.9361C26.25 41.5013 26.6438 42.1742 27.6938 41.9589C31.8633 40.517 35.4865 37.7702 38.0531 34.1054C40.6196 30.4407 42.0001 26.0428 42 21.5312C42 9.6352 32.6025 0 21 0Z" fill="#2E2E37"/>
</g>
</svg>
