<svg width="917" height="179" viewBox="0 0 917 179" fill="none" xmlns="http://www.w3.org/2000/svg">
<g id="h1">
<g id="Daniel Pereira">
<g id="Vector">
<path d="M632.531 84.584C634.515 84.584 635.506 85.3519 635.506 86.8877C635.506 87.6557 635.251 88.4244 634.739 89.1924L633.97 90.4404C633.906 90.6319 633.811 90.7274 633.683 90.7276C633.555 90.7276 633.459 90.6321 633.395 90.4404C633.331 90.2485 633.363 90.0562 633.491 89.8643C633.619 89.6723 633.715 89.4801 633.779 89.2881C633.907 89.0961 634.035 88.9039 634.163 88.7119C634.482 88.0723 634.643 87.5925 634.643 87.2725C634.643 86.8246 634.451 86.5363 634.067 86.4082C633.747 86.2162 633.331 86.1201 632.819 86.1201C632.563 86.1201 632.275 86.1518 631.955 86.2158C631.699 86.2158 631.443 86.2476 631.187 86.3115C629.843 86.7595 628.658 87.3361 627.634 88.0401C626.674 88.744 625.714 89.6397 624.754 90.7276C623.602 91.9436 622.354 93.5443 621.01 95.5283C619.666 97.4482 618.482 99.4 617.458 101.384C616.498 103.368 615.923 105.128 615.731 106.664C615.603 107.048 615.539 107.656 615.539 108.488C615.539 109.064 615.603 109.672 615.731 110.312C615.923 110.888 616.243 111.176 616.691 111.176C617.267 111.176 617.811 110.887 618.323 110.312C618.835 109.736 619.251 109.256 619.571 108.872C620.659 107.336 621.874 105.416 623.218 103.112C624.562 100.808 625.618 98.632 626.386 96.584L626.579 95.5283C626.707 95.0163 626.963 94.4398 627.347 93.7998C627.731 93.16 628.275 92.8399 628.979 92.8399C629.555 92.84 629.842 93.16 629.842 93.7998C629.842 93.8638 629.811 93.9282 629.747 93.9922V94.1836C629.491 95.6555 629.298 97.1277 629.17 98.5996C629.042 100.008 628.979 101.448 628.979 102.92C628.979 105.544 629.235 107.496 629.747 108.776C630.259 109.992 630.899 110.6 631.667 110.6C632.435 110.6 633.267 110.184 634.163 109.352C635.123 108.52 636.019 107.592 636.851 106.568C637.747 105.48 638.419 104.648 638.867 104.072L640.979 101.192C641.171 100.937 641.331 100.808 641.458 100.808C641.586 100.808 641.651 100.904 641.651 101.096C641.651 101.416 641.586 101.672 641.458 101.864C640.819 102.952 640.051 104.104 639.155 105.32C638.323 106.472 637.363 107.688 636.275 108.968C635.443 109.992 634.515 110.856 633.491 111.56C632.467 112.264 631.507 112.616 630.611 112.616C629.779 112.616 629.011 112.232 628.307 111.464C627.603 110.696 627.027 109.384 626.579 107.528C626.451 106.824 626.323 105.8 626.195 104.456C626.131 103.048 626.131 101.608 626.195 100.136C625.811 101.096 625.267 102.248 624.563 103.592C623.859 104.936 623.027 106.28 622.067 107.624C621.171 108.904 620.178 109.992 619.09 110.888C618.066 111.72 617.043 112.136 616.019 112.136C615.187 112.136 614.547 111.784 614.099 111.08C613.715 110.376 613.459 109.576 613.331 108.68C613.267 107.784 613.267 107.08 613.331 106.568C613.715 103.624 614.707 100.68 616.307 97.7363C617.907 94.7925 619.89 92.1682 622.258 89.8643C624.69 87.5603 627.251 85.9605 629.939 85.0645C630.451 84.8725 630.899 84.7437 631.283 84.6797C631.731 84.6157 632.147 84.584 632.531 84.584Z" fill="white"/>
<path d="M632.531 84.584C634.515 84.584 635.506 85.3519 635.506 86.8877C635.506 87.6557 635.251 88.4244 634.739 89.1924L633.97 90.4404C633.906 90.6319 633.811 90.7274 633.683 90.7276C633.555 90.7276 633.459 90.6321 633.395 90.4404C633.331 90.2485 633.363 90.0562 633.491 89.8643C633.619 89.6723 633.715 89.4801 633.779 89.2881C633.907 89.0961 634.035 88.9039 634.163 88.7119C634.482 88.0723 634.643 87.5925 634.643 87.2725C634.643 86.8246 634.451 86.5363 634.067 86.4082C633.747 86.2162 633.331 86.1201 632.819 86.1201C632.563 86.1201 632.275 86.1518 631.955 86.2158C631.699 86.2158 631.443 86.2476 631.187 86.3115C629.843 86.7595 628.658 87.3361 627.634 88.0401C626.674 88.744 625.714 89.6397 624.754 90.7276C623.602 91.9436 622.354 93.5443 621.01 95.5283C619.666 97.4482 618.482 99.4 617.458 101.384C616.498 103.368 615.923 105.128 615.731 106.664C615.603 107.048 615.539 107.656 615.539 108.488C615.539 109.064 615.603 109.672 615.731 110.312C615.923 110.888 616.243 111.176 616.691 111.176C617.267 111.176 617.811 110.887 618.323 110.312C618.835 109.736 619.251 109.256 619.571 108.872C620.659 107.336 621.874 105.416 623.218 103.112C624.562 100.808 625.618 98.632 626.386 96.584L626.579 95.5283C626.707 95.0163 626.963 94.4398 627.347 93.7998C627.731 93.16 628.275 92.8399 628.979 92.8399C629.555 92.84 629.842 93.16 629.842 93.7998C629.842 93.8638 629.811 93.9282 629.747 93.9922V94.1836C629.491 95.6555 629.298 97.1277 629.17 98.5996C629.042 100.008 628.979 101.448 628.979 102.92C628.979 105.544 629.235 107.496 629.747 108.776C630.259 109.992 630.899 110.6 631.667 110.6C632.435 110.6 633.267 110.184 634.163 109.352C635.123 108.52 636.019 107.592 636.851 106.568C637.747 105.48 638.419 104.648 638.867 104.072L640.979 101.192C641.171 100.937 641.331 100.808 641.458 100.808C641.586 100.808 641.651 100.904 641.651 101.096C641.651 101.416 641.586 101.672 641.458 101.864C640.819 102.952 640.051 104.104 639.155 105.32C638.323 106.472 637.363 107.688 636.275 108.968C635.443 109.992 634.515 110.856 633.491 111.56C632.467 112.264 631.507 112.616 630.611 112.616C629.779 112.616 629.011 112.232 628.307 111.464C627.603 110.696 627.027 109.384 626.579 107.528C626.451 106.824 626.323 105.8 626.195 104.456C626.131 103.048 626.131 101.608 626.195 100.136C625.811 101.096 625.267 102.248 624.563 103.592C623.859 104.936 623.027 106.28 622.067 107.624C621.171 108.904 620.178 109.992 619.09 110.888C618.066 111.72 617.043 112.136 616.019 112.136C615.187 112.136 614.547 111.784 614.099 111.08C613.715 110.376 613.459 109.576 613.331 108.68C613.267 107.784 613.267 107.08 613.331 106.568C613.715 103.624 614.707 100.68 616.307 97.7363C617.907 94.7925 619.89 92.1682 622.258 89.8643C624.69 87.5603 627.251 85.9605 629.939 85.0645C630.451 84.8725 630.899 84.7437 631.283 84.6797C631.731 84.6157 632.147 84.584 632.531 84.584Z" stroke="white"/>
</g>
<g id="Vector_2">
<path d="M603.596 84.68C604.108 84.68 604.363 84.9683 604.363 85.5443C604.299 85.7362 604.268 86.024 604.268 86.4075C604.268 86.9835 604.395 87.5601 604.651 88.136C604.907 88.712 605.292 89.1598 605.804 89.4798C606.316 89.8638 607.052 90.2164 608.012 90.5364C609.036 90.7924 609.931 91.1125 610.699 91.4964C611.531 91.8803 611.947 92.4878 611.947 93.3196C611.947 93.7036 611.66 94.3762 611.084 95.3362C610.508 96.2322 609.804 97.2239 608.972 98.3118C608.204 99.3998 607.436 100.424 606.668 101.384C605.964 102.28 605.452 102.92 605.132 103.304C603.916 104.904 602.732 106.6 601.58 108.392C600.492 110.12 599.947 111.912 599.947 113.768C599.947 114.856 600.236 115.656 600.812 116.168C601.451 116.68 602.188 116.936 603.02 116.936C604.107 116.936 605.164 116.584 606.188 115.88C607.211 115.24 608.044 114.6 608.684 113.96C608.876 113.704 609.036 113.576 609.164 113.576C609.292 113.577 609.355 113.672 609.355 113.864C609.355 114.184 609.228 114.472 608.972 114.728C608.14 115.752 607.084 116.584 605.804 117.224C604.588 117.928 603.371 118.28 602.155 118.28C601.068 118.28 600.14 117.896 599.372 117.128C598.668 116.424 598.315 115.272 598.315 113.672C598.315 111.624 598.796 109.608 599.756 107.624C600.78 105.64 601.995 103.688 603.403 101.768C604.811 99.8479 606.124 98.0242 607.34 96.2962C607.852 95.4642 608.107 94.7916 608.107 94.2796C608.107 93.3838 607.532 92.6475 606.38 92.0716C605.868 91.8156 605.26 91.4322 604.556 90.9202C603.852 90.3444 603.404 89.8003 603.212 89.2884C602.38 91.5923 601.26 94.1522 599.852 96.9681C598.508 99.784 596.715 102.568 594.476 105.32C594.22 105.703 593.964 105.896 593.708 105.896C593.58 105.896 593.516 105.8 593.516 105.608C593.516 105.352 593.644 105.064 593.899 104.744C594.603 103.912 595.436 102.728 596.396 101.192C597.355 99.5918 598.284 97.864 599.18 96.0081C600.14 94.0881 600.907 92.2318 601.483 90.4398C602.123 88.6478 602.443 87.0796 602.443 85.7357C602.571 85.0318 602.956 84.68 603.596 84.68Z" fill="white"/>
<path d="M603.596 84.68C604.108 84.68 604.363 84.9683 604.363 85.5443C604.299 85.7362 604.268 86.024 604.268 86.4075C604.268 86.9835 604.395 87.5601 604.651 88.136C604.907 88.712 605.292 89.1598 605.804 89.4798C606.316 89.8638 607.052 90.2164 608.012 90.5364C609.036 90.7924 609.931 91.1125 610.699 91.4964C611.531 91.8803 611.947 92.4878 611.947 93.3196C611.947 93.7036 611.66 94.3762 611.084 95.3362C610.508 96.2322 609.804 97.2239 608.972 98.3118C608.204 99.3998 607.436 100.424 606.668 101.384C605.964 102.28 605.452 102.92 605.132 103.304C603.916 104.904 602.732 106.6 601.58 108.392C600.492 110.12 599.947 111.912 599.947 113.768C599.947 114.856 600.236 115.656 600.812 116.168C601.451 116.68 602.188 116.936 603.02 116.936C604.107 116.936 605.164 116.584 606.188 115.88C607.211 115.24 608.044 114.6 608.684 113.96C608.876 113.704 609.036 113.576 609.164 113.576C609.292 113.577 609.355 113.672 609.355 113.864C609.355 114.184 609.228 114.472 608.972 114.728C608.14 115.752 607.084 116.584 605.804 117.224C604.588 117.928 603.371 118.28 602.155 118.28C601.068 118.28 600.14 117.896 599.372 117.128C598.668 116.424 598.315 115.272 598.315 113.672C598.315 111.624 598.796 109.608 599.756 107.624C600.78 105.64 601.995 103.688 603.403 101.768C604.811 99.8479 606.124 98.0242 607.34 96.2962C607.852 95.4642 608.107 94.7916 608.107 94.2796C608.107 93.3838 607.532 92.6475 606.38 92.0716C605.868 91.8156 605.26 91.4322 604.556 90.9202C603.852 90.3444 603.404 89.8003 603.212 89.2884C602.38 91.5923 601.26 94.1522 599.852 96.9681C598.508 99.784 596.715 102.568 594.476 105.32C594.22 105.703 593.964 105.896 593.708 105.896C593.58 105.896 593.516 105.8 593.516 105.608C593.516 105.352 593.644 105.064 593.899 104.744C594.603 103.912 595.436 102.728 596.396 101.192C597.355 99.5918 598.284 97.864 599.18 96.0081C600.14 94.0881 600.907 92.2318 601.483 90.4398C602.123 88.6478 602.443 87.0796 602.443 85.7357C602.571 85.0318 602.956 84.68 603.596 84.68Z" stroke="white"/>
</g>
<g id="Vector_3">
<path d="M584.602 92.8401C585.178 92.8402 585.466 93.1601 585.466 93.8001C585.466 93.8641 585.434 93.9285 585.37 93.9925V94.1839C585.114 95.6558 584.921 97.1279 584.793 98.5999C584.665 100.008 584.602 101.448 584.602 102.92C584.602 105.48 584.794 107.336 585.178 108.488C585.626 109.639 586.234 110.216 587.001 110.216C587.577 110.216 588.25 109.96 589.018 109.448C589.786 108.872 590.65 108.135 591.61 107.24C592.442 106.472 593.242 105.608 594.01 104.648C594.778 103.688 595.61 102.472 596.506 101C596.634 100.68 596.826 100.52 597.082 100.52C597.529 100.52 597.594 100.84 597.274 101.48C596.634 102.504 595.834 103.624 594.874 104.84C593.914 106.056 592.89 107.304 591.802 108.584C590.842 109.736 589.85 110.728 588.826 111.56C587.866 112.328 586.937 112.712 586.042 112.712C585.21 112.712 584.473 112.328 583.833 111.56C583.194 110.728 582.65 109.383 582.202 107.528C582.138 106.952 582.042 106.119 581.914 105.032C581.85 103.944 581.818 102.824 581.818 101.672C581.818 100.456 581.85 99.3041 581.914 98.2161C582.042 97.0641 582.138 96.1676 582.202 95.5276C582.33 95.0157 582.586 94.44 582.97 93.8001C583.418 93.1602 583.962 92.8401 584.602 92.8401ZM588.25 83.72C588.57 83.72 588.858 83.7844 589.114 83.9124C589.434 84.0404 589.594 84.2643 589.594 84.5843C589.594 85.2881 589.145 85.8639 588.25 86.3118C587.354 86.7597 586.617 86.9837 586.042 86.9837C585.786 86.9836 585.498 86.9201 585.178 86.7923C584.922 86.6643 584.793 86.4077 584.793 86.0237C584.794 85.3199 585.21 84.7758 586.042 84.3919C586.937 83.944 587.674 83.7201 588.25 83.72Z" fill="white"/>
<path d="M584.602 92.8401C585.178 92.8402 585.466 93.1601 585.466 93.8001C585.466 93.8641 585.434 93.9285 585.37 93.9925V94.1839C585.114 95.6558 584.921 97.1279 584.793 98.5999C584.665 100.008 584.602 101.448 584.602 102.92C584.602 105.48 584.794 107.336 585.178 108.488C585.626 109.639 586.234 110.216 587.001 110.216C587.577 110.216 588.25 109.96 589.018 109.448C589.786 108.872 590.65 108.135 591.61 107.24C592.442 106.472 593.242 105.608 594.01 104.648C594.778 103.688 595.61 102.472 596.506 101C596.634 100.68 596.826 100.52 597.082 100.52C597.529 100.52 597.594 100.84 597.274 101.48C596.634 102.504 595.834 103.624 594.874 104.84C593.914 106.056 592.89 107.304 591.802 108.584C590.842 109.736 589.85 110.728 588.826 111.56C587.866 112.328 586.937 112.712 586.042 112.712C585.21 112.712 584.473 112.328 583.833 111.56C583.194 110.728 582.65 109.383 582.202 107.528C582.138 106.952 582.042 106.119 581.914 105.032C581.85 103.944 581.818 102.824 581.818 101.672C581.818 100.456 581.85 99.3041 581.914 98.2161C582.042 97.0641 582.138 96.1676 582.202 95.5276C582.33 95.0157 582.586 94.44 582.97 93.8001C583.418 93.1602 583.962 92.8401 584.602 92.8401ZM588.25 83.72C588.57 83.72 588.858 83.7844 589.114 83.9124C589.434 84.0404 589.594 84.2643 589.594 84.5843C589.594 85.2881 589.145 85.8639 588.25 86.3118C587.354 86.7597 586.617 86.9837 586.042 86.9837C585.786 86.9836 585.498 86.9201 585.178 86.7923C584.922 86.6643 584.793 86.4077 584.793 86.0237C584.794 85.3199 585.21 84.7758 586.042 84.3919C586.937 83.944 587.674 83.7201 588.25 83.72Z" stroke="white"/>
</g>
<g id="Vector_4">
<path d="M574.76 88.232C575.72 88.2321 576.328 88.7125 576.584 89.6724C576.904 90.6321 577.063 91.432 577.063 92.0718C577.063 93.3518 576.583 94.4078 575.623 95.2398C574.663 96.0717 573.447 96.5522 571.976 96.6802C571.4 96.6802 570.791 96.6159 570.151 96.4879C569.576 96.296 569.224 96.1363 569.096 96.0084C568.648 96.9043 568.008 98.2161 567.176 99.9439C566.408 101.672 565.703 103.432 565.063 105.224C564.424 107.016 564.104 108.52 564.104 109.736C564.104 110.44 564.296 111.048 564.68 111.56C565.128 112.072 565.768 112.296 566.6 112.232C567.88 112.104 569.256 111.56 570.728 110.6C572.264 109.576 573.767 108.36 575.239 106.952C576.711 105.48 577.928 104.04 578.888 102.632C579.016 102.44 579.143 102.344 579.271 102.344C579.399 102.344 579.496 102.44 579.56 102.632C579.623 102.824 579.623 102.984 579.56 103.112C578.664 104.52 577.415 106.056 575.815 107.72C574.279 109.384 572.615 110.824 570.823 112.04C569.095 113.256 567.464 113.928 565.928 114.056C564.712 114.184 563.719 113.928 562.951 113.288C562.247 112.648 561.896 111.656 561.896 110.312C561.896 108.904 562.215 107.272 562.855 105.416C563.495 103.56 564.263 101.768 565.159 100.04C566.055 98.3117 566.856 96.9039 567.56 95.816C567.496 95.752 567.368 95.5598 567.176 95.2398C567.048 94.8558 566.983 94.5358 566.983 94.2798C566.983 94.024 567.08 93.8961 567.271 93.8961C567.463 93.8961 567.815 94.0557 568.327 94.3755C568.775 93.6716 569.32 92.8403 569.96 91.8804C570.664 90.9204 571.4 90.0883 572.168 89.3843C573 88.6164 573.864 88.232 574.76 88.232ZM573.224 90.8238C572.648 90.8878 571.975 91.496 571.207 92.648C570.503 93.7359 569.992 94.5364 569.672 95.0484C569.8 95.1124 570.12 95.2077 570.632 95.3355C571.208 95.4635 571.56 95.5279 571.688 95.5279C572.583 95.3999 573.223 95.0155 573.607 94.3755C573.991 93.7356 574.119 92.9677 573.991 92.0718C573.991 91.816 573.928 91.5601 573.8 91.3043C573.736 90.9843 573.544 90.8238 573.224 90.8238Z" fill="white"/>
<path d="M574.76 88.232C575.72 88.2321 576.328 88.7125 576.584 89.6724C576.904 90.6321 577.063 91.432 577.063 92.0718C577.063 93.3518 576.583 94.4078 575.623 95.2398C574.663 96.0717 573.447 96.5522 571.976 96.6802C571.4 96.6802 570.791 96.6159 570.151 96.4879C569.576 96.296 569.224 96.1363 569.096 96.0084C568.648 96.9043 568.008 98.2161 567.176 99.9439C566.408 101.672 565.703 103.432 565.063 105.224C564.424 107.016 564.104 108.52 564.104 109.736C564.104 110.44 564.296 111.048 564.68 111.56C565.128 112.072 565.768 112.296 566.6 112.232C567.88 112.104 569.256 111.56 570.728 110.6C572.264 109.576 573.767 108.36 575.239 106.952C576.711 105.48 577.928 104.04 578.888 102.632C579.016 102.44 579.143 102.344 579.271 102.344C579.399 102.344 579.496 102.44 579.56 102.632C579.623 102.824 579.623 102.984 579.56 103.112C578.664 104.52 577.415 106.056 575.815 107.72C574.279 109.384 572.615 110.824 570.823 112.04C569.095 113.256 567.464 113.928 565.928 114.056C564.712 114.184 563.719 113.928 562.951 113.288C562.247 112.648 561.896 111.656 561.896 110.312C561.896 108.904 562.215 107.272 562.855 105.416C563.495 103.56 564.263 101.768 565.159 100.04C566.055 98.3117 566.856 96.9039 567.56 95.816C567.496 95.752 567.368 95.5598 567.176 95.2398C567.048 94.8558 566.983 94.5358 566.983 94.2798C566.983 94.024 567.08 93.8961 567.271 93.8961C567.463 93.8961 567.815 94.0557 568.327 94.3755C568.775 93.6716 569.32 92.8403 569.96 91.8804C570.664 90.9204 571.4 90.0883 572.168 89.3843C573 88.6164 573.864 88.232 574.76 88.232ZM573.224 90.8238C572.648 90.8878 571.975 91.496 571.207 92.648C570.503 93.7359 569.992 94.5364 569.672 95.0484C569.8 95.1124 570.12 95.2077 570.632 95.3355C571.208 95.4635 571.56 95.5279 571.688 95.5279C572.583 95.3999 573.223 95.0155 573.607 94.3755C573.991 93.7356 574.119 92.9677 573.991 92.0718C573.991 91.816 573.928 91.5601 573.8 91.3043C573.736 90.9843 573.544 90.8238 573.224 90.8238Z" stroke="white"/>
</g>
<g id="Vector_5">
<path d="M550.721 84.68C551.233 84.68 551.488 84.9683 551.488 85.5443C551.424 85.7362 551.393 86.024 551.393 86.4075C551.393 86.9835 551.52 87.5601 551.776 88.136C552.032 88.712 552.417 89.1598 552.929 89.4798C553.441 89.8638 554.177 90.2164 555.137 90.5364C556.161 90.7924 557.056 91.1125 557.824 91.4964C558.656 91.8803 559.072 92.4878 559.072 93.3196C559.072 93.7036 558.785 94.3762 558.209 95.3362C557.633 96.2322 556.929 97.2239 556.097 98.3118C555.329 99.3998 554.561 100.424 553.793 101.384C553.089 102.28 552.577 102.92 552.257 103.304C551.041 104.904 549.857 106.6 548.705 108.392C547.617 110.12 547.072 111.912 547.072 113.768C547.072 114.856 547.361 115.656 547.937 116.168C548.576 116.68 549.313 116.936 550.145 116.936C551.232 116.936 552.289 116.584 553.312 115.88C554.336 115.24 555.169 114.6 555.809 113.96C556.001 113.704 556.161 113.576 556.289 113.576C556.417 113.577 556.48 113.672 556.48 113.864C556.48 114.184 556.353 114.472 556.097 114.728C555.265 115.752 554.209 116.584 552.929 117.224C551.713 117.928 550.496 118.28 549.28 118.28C548.193 118.28 547.265 117.896 546.497 117.128C545.793 116.424 545.44 115.272 545.44 113.672C545.44 111.624 545.921 109.608 546.881 107.624C547.905 105.64 549.12 103.688 550.528 101.768C551.936 99.8479 553.249 98.0242 554.465 96.2962C554.977 95.4642 555.232 94.7916 555.232 94.2796C555.232 93.3838 554.657 92.6475 553.505 92.0716C552.993 91.8156 552.385 91.4322 551.681 90.9202C550.977 90.3444 550.529 89.8003 550.337 89.2884C549.505 91.5923 548.385 94.1522 546.977 96.9681C545.633 99.784 543.84 102.568 541.601 105.32C541.345 105.703 541.089 105.896 540.833 105.896C540.705 105.896 540.641 105.8 540.641 105.608C540.641 105.352 540.769 105.064 541.024 104.744C541.728 103.912 542.561 102.728 543.521 101.192C544.48 99.5918 545.409 97.864 546.305 96.0081C547.265 94.0881 548.032 92.2318 548.608 90.4398C549.248 88.6478 549.568 87.0796 549.568 85.7357C549.696 85.0318 550.081 84.68 550.721 84.68Z" fill="white"/>
<path d="M550.721 84.68C551.233 84.68 551.488 84.9683 551.488 85.5443C551.424 85.7362 551.393 86.024 551.393 86.4075C551.393 86.9835 551.52 87.5601 551.776 88.136C552.032 88.712 552.417 89.1598 552.929 89.4798C553.441 89.8638 554.177 90.2164 555.137 90.5364C556.161 90.7924 557.056 91.1125 557.824 91.4964C558.656 91.8803 559.072 92.4878 559.072 93.3196C559.072 93.7036 558.785 94.3762 558.209 95.3362C557.633 96.2322 556.929 97.2239 556.097 98.3118C555.329 99.3998 554.561 100.424 553.793 101.384C553.089 102.28 552.577 102.92 552.257 103.304C551.041 104.904 549.857 106.6 548.705 108.392C547.617 110.12 547.072 111.912 547.072 113.768C547.072 114.856 547.361 115.656 547.937 116.168C548.576 116.68 549.313 116.936 550.145 116.936C551.232 116.936 552.289 116.584 553.312 115.88C554.336 115.24 555.169 114.6 555.809 113.96C556.001 113.704 556.161 113.576 556.289 113.576C556.417 113.577 556.48 113.672 556.48 113.864C556.48 114.184 556.353 114.472 556.097 114.728C555.265 115.752 554.209 116.584 552.929 117.224C551.713 117.928 550.496 118.28 549.28 118.28C548.193 118.28 547.265 117.896 546.497 117.128C545.793 116.424 545.44 115.272 545.44 113.672C545.44 111.624 545.921 109.608 546.881 107.624C547.905 105.64 549.12 103.688 550.528 101.768C551.936 99.8479 553.249 98.0242 554.465 96.2962C554.977 95.4642 555.232 94.7916 555.232 94.2796C555.232 93.3838 554.657 92.6475 553.505 92.0716C552.993 91.8156 552.385 91.4322 551.681 90.9202C550.977 90.3444 550.529 89.8003 550.337 89.2884C549.505 91.5923 548.385 94.1522 546.977 96.9681C545.633 99.784 543.84 102.568 541.601 105.32C541.345 105.703 541.089 105.896 540.833 105.896C540.705 105.896 540.641 105.8 540.641 105.608C540.641 105.352 540.769 105.064 541.024 104.744C541.728 103.912 542.561 102.728 543.521 101.192C544.48 99.5918 545.409 97.864 546.305 96.0081C547.265 94.0881 548.032 92.2318 548.608 90.4398C549.248 88.6478 549.568 87.0796 549.568 85.7357C549.696 85.0318 550.081 84.68 550.721 84.68Z" stroke="white"/>
</g>
<g id="Vector_6">
<path d="M538.479 88.232C539.438 88.2321 540.047 88.7125 540.303 89.6724C540.623 90.6321 540.782 91.432 540.782 92.0718C540.782 93.3518 540.302 94.4078 539.342 95.2398C538.382 96.0717 537.166 96.5522 535.694 96.6802C535.118 96.6802 534.51 96.6159 533.87 96.4879C533.295 96.296 532.943 96.1363 532.814 96.0084C532.366 96.9043 531.726 98.2161 530.895 99.9439C530.127 101.672 529.422 103.432 528.782 105.224C528.142 107.016 527.822 108.52 527.822 109.736C527.822 110.44 528.014 111.048 528.398 111.56C528.846 112.072 529.486 112.296 530.318 112.232C531.598 112.104 532.974 111.56 534.446 110.6C535.982 109.576 537.486 108.36 538.958 106.952C540.43 105.48 541.646 104.04 542.606 102.632C542.734 102.44 542.862 102.344 542.99 102.344C543.118 102.344 543.214 102.44 543.278 102.632C543.342 102.824 543.342 102.984 543.278 103.112C542.382 104.52 541.134 106.056 539.534 107.72C537.998 109.384 536.334 110.824 534.542 112.04C532.814 113.256 531.182 113.928 529.646 114.056C528.43 114.184 527.438 113.928 526.67 113.288C525.966 112.648 525.614 111.656 525.614 110.312C525.614 108.904 525.934 107.272 526.574 105.416C527.214 103.56 527.982 101.768 528.878 100.04C529.774 98.3117 530.574 96.9039 531.278 95.816C531.214 95.752 531.087 95.5598 530.895 95.2398C530.767 94.8558 530.702 94.5358 530.702 94.2798C530.702 94.024 530.798 93.8961 530.99 93.8961C531.182 93.8961 531.534 94.0557 532.046 94.3755C532.494 93.6716 533.039 92.8403 533.679 91.8804C534.383 90.9204 535.119 90.0883 535.887 89.3843C536.719 88.6164 537.583 88.232 538.479 88.232ZM536.942 90.8238C536.366 90.8878 535.694 91.496 534.926 92.648C534.222 93.7359 533.711 94.5364 533.391 95.0484C533.519 95.1124 533.839 95.2077 534.351 95.3355C534.926 95.4635 535.278 95.5279 535.406 95.5279C536.302 95.3999 536.942 95.0155 537.326 94.3755C537.71 93.7356 537.838 92.9677 537.71 92.0718C537.71 91.816 537.646 91.5601 537.519 91.3043C537.455 90.9843 537.262 90.8238 536.942 90.8238Z" fill="white"/>
<path d="M538.479 88.232C539.438 88.2321 540.047 88.7125 540.303 89.6724C540.623 90.6321 540.782 91.432 540.782 92.0718C540.782 93.3518 540.302 94.4078 539.342 95.2398C538.382 96.0717 537.166 96.5522 535.694 96.6802C535.118 96.6802 534.51 96.6159 533.87 96.4879C533.295 96.296 532.943 96.1363 532.814 96.0084C532.366 96.9043 531.726 98.2161 530.895 99.9439C530.127 101.672 529.422 103.432 528.782 105.224C528.142 107.016 527.822 108.52 527.822 109.736C527.822 110.44 528.014 111.048 528.398 111.56C528.846 112.072 529.486 112.296 530.318 112.232C531.598 112.104 532.974 111.56 534.446 110.6C535.982 109.576 537.486 108.36 538.958 106.952C540.43 105.48 541.646 104.04 542.606 102.632C542.734 102.44 542.862 102.344 542.99 102.344C543.118 102.344 543.214 102.44 543.278 102.632C543.342 102.824 543.342 102.984 543.278 103.112C542.382 104.52 541.134 106.056 539.534 107.72C537.998 109.384 536.334 110.824 534.542 112.04C532.814 113.256 531.182 113.928 529.646 114.056C528.43 114.184 527.438 113.928 526.67 113.288C525.966 112.648 525.614 111.656 525.614 110.312C525.614 108.904 525.934 107.272 526.574 105.416C527.214 103.56 527.982 101.768 528.878 100.04C529.774 98.3117 530.574 96.9039 531.278 95.816C531.214 95.752 531.087 95.5598 530.895 95.2398C530.767 94.8558 530.702 94.5358 530.702 94.2798C530.702 94.024 530.798 93.8961 530.99 93.8961C531.182 93.8961 531.534 94.0557 532.046 94.3755C532.494 93.6716 533.039 92.8403 533.679 91.8804C534.383 90.9204 535.119 90.0883 535.887 89.3843C536.719 88.6164 537.583 88.232 538.479 88.232ZM536.942 90.8238C536.366 90.8878 535.694 91.496 534.926 92.648C534.222 93.7359 533.711 94.5364 533.391 95.0484C533.519 95.1124 533.839 95.2077 534.351 95.3355C534.926 95.4635 535.278 95.5279 535.406 95.5279C536.302 95.3999 536.942 95.0155 537.326 94.3755C537.71 93.7356 537.838 92.9677 537.71 92.0718C537.71 91.816 537.646 91.5601 537.519 91.3043C537.455 90.9843 537.262 90.8238 536.942 90.8238Z" stroke="white"/>
</g>
<g id="Vector_7">
<path d="M502.918 54.92C504.198 54.92 505.383 55.3043 506.471 56.0723C507.623 56.7764 508.455 58.0564 508.967 59.9122C509.031 60.1042 509.062 60.3926 509.062 60.7764C509.062 61.2881 508.902 61.544 508.582 61.544C508.134 61.5438 507.814 61.2239 507.622 60.5841C507.366 59.4963 506.855 58.7601 506.087 58.3761C505.383 57.9921 504.582 57.7999 503.687 57.7999C502.343 57.7999 500.935 58.1517 499.463 58.8555C498.055 59.4955 496.966 60.1681 496.198 60.8721L495.143 61.8321H497.158C497.798 61.7681 498.438 61.7364 499.078 61.7364C500.23 61.7364 501.382 61.7681 502.534 61.8321C503.686 61.8961 504.838 61.9595 505.99 62.0235C511.942 62.4075 516.295 63.8161 519.047 66.2481C521.799 68.616 523.175 71.496 523.175 74.8878C523.175 77.9598 522.151 80.8721 520.103 83.6241C518.119 86.3761 515.174 88.6158 511.271 90.3438C507.367 92.0718 502.503 92.9683 496.679 93.0323C493.991 93.0323 492.103 92.8083 491.015 92.3604C489.991 91.8484 489.479 91.3997 489.479 91.0157C489.479 90.5679 489.767 90.3438 490.343 90.3438C490.855 90.5358 491.623 90.728 492.646 90.92C493.67 91.048 494.823 91.1124 496.103 91.1124C497.382 91.1124 498.79 91.048 500.326 90.92C501.862 90.728 503.462 90.408 505.126 89.96C507.942 89.128 510.407 87.9116 512.519 86.3116C514.63 84.6477 516.295 82.7921 517.511 80.7442C518.727 78.6962 519.334 76.712 519.334 74.7921C519.334 72.1681 517.991 69.7678 515.303 67.5919C512.615 65.3519 508.519 64.0077 503.015 63.5596C502.183 63.4957 501.223 63.464 500.135 63.4639C499.111 63.4 498.151 63.3683 497.255 63.3682C496.615 63.3682 496.007 63.4 495.431 63.4639H493.702C490.182 67.3678 487.271 71.8159 484.967 76.8077C482.663 81.7997 480.934 86.9844 479.782 92.3604C478.694 97.7363 478.15 102.92 478.15 107.912C478.15 109.704 478.215 111.432 478.343 113.096C478.471 114.824 478.662 116.456 478.918 117.992V118.28C478.982 118.408 479.015 118.536 479.015 118.664C479.015 119.304 478.822 119.624 478.438 119.624C477.927 119.624 477.575 119.304 477.383 118.664C476.487 115.592 476.038 111.976 476.038 107.816C476.038 103.145 476.583 98.1202 477.671 92.7442C478.759 87.3682 480.294 82.1518 482.278 77.0958C484.326 71.9759 486.758 67.528 489.574 63.752C484.966 64.2 480.87 65.0638 477.286 66.3438C473.702 67.5598 470.854 69.0963 468.742 70.9522C466.694 72.7441 465.671 74.792 465.671 77.0958C465.671 78.7598 466.311 80.5201 467.591 82.3761C468.871 84.232 470.887 86.1836 473.639 88.2315C474.023 88.4875 474.215 88.7441 474.215 89.0001C474.215 89.192 474.054 89.2882 473.734 89.2882C473.222 89.2882 472.678 89.0959 472.103 88.712C468.903 86.408 466.567 84.1999 465.095 82.088C463.687 79.976 462.982 77.9918 462.982 76.1358C462.982 73.5759 464.231 71.336 466.727 69.4161C469.223 67.4321 472.583 65.8323 476.807 64.6163C481.03 63.3363 485.734 62.4715 490.918 62.0235C492.07 60.6797 493.318 59.4322 494.662 58.2803C495.558 57.3843 496.775 56.6157 498.311 55.9757C499.846 55.2718 501.382 54.9201 502.918 54.92Z" fill="white"/>
<path d="M502.918 54.92C504.198 54.92 505.383 55.3043 506.471 56.0723C507.623 56.7764 508.455 58.0564 508.967 59.9122C509.031 60.1042 509.062 60.3926 509.062 60.7764C509.062 61.2881 508.902 61.544 508.582 61.544C508.134 61.5438 507.814 61.2239 507.622 60.5841C507.366 59.4963 506.855 58.7601 506.087 58.3761C505.383 57.9921 504.582 57.7999 503.687 57.7999C502.343 57.7999 500.935 58.1517 499.463 58.8555C498.055 59.4955 496.966 60.1681 496.198 60.8721L495.143 61.8321H497.158C497.798 61.7681 498.438 61.7364 499.078 61.7364C500.23 61.7364 501.382 61.7681 502.534 61.8321C503.686 61.8961 504.838 61.9595 505.99 62.0235C511.942 62.4075 516.295 63.8161 519.047 66.2481C521.799 68.616 523.175 71.496 523.175 74.8878C523.175 77.9598 522.151 80.8721 520.103 83.6241C518.119 86.3761 515.174 88.6158 511.271 90.3438C507.367 92.0718 502.503 92.9683 496.679 93.0323C493.991 93.0323 492.103 92.8083 491.015 92.3604C489.991 91.8484 489.479 91.3997 489.479 91.0157C489.479 90.5679 489.767 90.3438 490.343 90.3438C490.855 90.5358 491.623 90.728 492.646 90.92C493.67 91.048 494.823 91.1124 496.103 91.1124C497.382 91.1124 498.79 91.048 500.326 90.92C501.862 90.728 503.462 90.408 505.126 89.96C507.942 89.128 510.407 87.9116 512.519 86.3116C514.63 84.6477 516.295 82.7921 517.511 80.7442C518.727 78.6962 519.334 76.712 519.334 74.7921C519.334 72.1681 517.991 69.7678 515.303 67.5919C512.615 65.3519 508.519 64.0077 503.015 63.5596C502.183 63.4957 501.223 63.464 500.135 63.4639C499.111 63.4 498.151 63.3683 497.255 63.3682C496.615 63.3682 496.007 63.4 495.431 63.4639H493.702C490.182 67.3678 487.271 71.8159 484.967 76.8077C482.663 81.7997 480.934 86.9844 479.782 92.3604C478.694 97.7363 478.15 102.92 478.15 107.912C478.15 109.704 478.215 111.432 478.343 113.096C478.471 114.824 478.662 116.456 478.918 117.992V118.28C478.982 118.408 479.015 118.536 479.015 118.664C479.015 119.304 478.822 119.624 478.438 119.624C477.927 119.624 477.575 119.304 477.383 118.664C476.487 115.592 476.038 111.976 476.038 107.816C476.038 103.145 476.583 98.1202 477.671 92.7442C478.759 87.3682 480.294 82.1518 482.278 77.0958C484.326 71.9759 486.758 67.528 489.574 63.752C484.966 64.2 480.87 65.0638 477.286 66.3438C473.702 67.5598 470.854 69.0963 468.742 70.9522C466.694 72.7441 465.671 74.792 465.671 77.0958C465.671 78.7598 466.311 80.5201 467.591 82.3761C468.871 84.232 470.887 86.1836 473.639 88.2315C474.023 88.4875 474.215 88.7441 474.215 89.0001C474.215 89.192 474.054 89.2882 473.734 89.2882C473.222 89.2882 472.678 89.0959 472.103 88.712C468.903 86.408 466.567 84.1999 465.095 82.088C463.687 79.976 462.982 77.9918 462.982 76.1358C462.982 73.5759 464.231 71.336 466.727 69.4161C469.223 67.4321 472.583 65.8323 476.807 64.6163C481.03 63.3363 485.734 62.4715 490.918 62.0235C492.07 60.6797 493.318 59.4322 494.662 58.2803C495.558 57.3843 496.775 56.6157 498.311 55.9757C499.846 55.2718 501.382 54.9201 502.918 54.92Z" stroke="white"/>
</g>
<g id="Vector_8">
<path d="M449.943 63.752C451.031 63.752 451.926 64.1364 452.63 64.9043C453.398 65.6083 453.783 66.8882 453.783 68.7442C453.783 70.9201 453.111 73.2244 451.767 75.6563C450.423 78.0882 448.663 80.4876 446.487 82.8555C444.375 85.2235 442.071 87.4316 439.575 89.4795C437.079 91.5275 434.647 93.3205 432.279 94.8565C429.911 96.3283 427.863 97.3845 426.135 98.0245C426.007 98.6645 425.751 99.8803 425.367 101.672C424.983 103.464 424.791 105.288 424.791 107.144C424.791 108.744 425.047 110.152 425.559 111.368C426.071 112.584 427.031 113.224 428.439 113.288C430.167 113.416 431.895 113 433.623 112.04C435.351 111.016 437.015 109.704 438.615 108.104C440.215 106.44 441.687 104.712 443.031 102.92C443.415 102.472 443.735 102.248 443.991 102.248C444.247 102.248 444.215 102.504 443.895 103.016C443.127 104.104 442.134 105.352 440.918 106.76C439.702 108.168 438.327 109.544 436.791 110.888C435.319 112.232 433.783 113.32 432.183 114.152C430.583 115.048 429.015 115.496 427.479 115.496C426.007 115.496 424.791 114.92 423.831 113.768C422.935 112.616 422.487 110.92 422.487 108.68C422.487 105.416 423.031 101.832 424.119 97.9278C425.207 94.0239 426.679 90.088 428.535 86.1202C430.391 82.1522 432.503 78.5038 434.871 75.1758C437.303 71.7839 439.831 69.032 442.455 66.92C443.415 66.152 444.598 65.4476 446.006 64.8077C447.414 64.1037 448.727 63.752 449.943 63.752ZM448.983 65C448.151 65 447.223 65.2883 446.199 65.8643C445.175 66.4402 444.343 67.0476 443.703 67.6875C441.975 69.0955 440.279 70.9519 438.615 73.2559C436.951 75.5599 435.351 78.0562 433.815 80.7442C432.343 83.4322 430.999 86.1524 429.783 88.9043C428.567 91.5922 427.575 94.0561 426.807 96.2959C429.623 95.3359 432.471 93.7995 435.351 91.6875C438.295 89.5757 440.983 87.1761 443.415 84.4883C445.847 81.8003 447.799 79.0802 449.271 76.3282C450.743 73.5762 451.479 71.0799 451.479 68.8399C451.479 67.368 451.222 66.3763 450.71 65.8643C450.262 65.2883 449.687 65.0001 448.983 65Z" fill="white"/>
<path d="M449.943 63.752C451.031 63.752 451.926 64.1364 452.63 64.9043C453.398 65.6083 453.783 66.8882 453.783 68.7442C453.783 70.9201 453.111 73.2244 451.767 75.6563C450.423 78.0882 448.663 80.4876 446.487 82.8555C444.375 85.2235 442.071 87.4316 439.575 89.4795C437.079 91.5275 434.647 93.3205 432.279 94.8565C429.911 96.3283 427.863 97.3845 426.135 98.0245C426.007 98.6645 425.751 99.8803 425.367 101.672C424.983 103.464 424.791 105.288 424.791 107.144C424.791 108.744 425.047 110.152 425.559 111.368C426.071 112.584 427.031 113.224 428.439 113.288C430.167 113.416 431.895 113 433.623 112.04C435.351 111.016 437.015 109.704 438.615 108.104C440.215 106.44 441.687 104.712 443.031 102.92C443.415 102.472 443.735 102.248 443.991 102.248C444.247 102.248 444.215 102.504 443.895 103.016C443.127 104.104 442.134 105.352 440.918 106.76C439.702 108.168 438.327 109.544 436.791 110.888C435.319 112.232 433.783 113.32 432.183 114.152C430.583 115.048 429.015 115.496 427.479 115.496C426.007 115.496 424.791 114.92 423.831 113.768C422.935 112.616 422.487 110.92 422.487 108.68C422.487 105.416 423.031 101.832 424.119 97.9278C425.207 94.0239 426.679 90.088 428.535 86.1202C430.391 82.1522 432.503 78.5038 434.871 75.1758C437.303 71.7839 439.831 69.032 442.455 66.92C443.415 66.152 444.598 65.4476 446.006 64.8077C447.414 64.1037 448.727 63.752 449.943 63.752ZM448.983 65C448.151 65 447.223 65.2883 446.199 65.8643C445.175 66.4402 444.343 67.0476 443.703 67.6875C441.975 69.0955 440.279 70.9519 438.615 73.2559C436.951 75.5599 435.351 78.0562 433.815 80.7442C432.343 83.4322 430.999 86.1524 429.783 88.9043C428.567 91.5922 427.575 94.0561 426.807 96.2959C429.623 95.3359 432.471 93.7995 435.351 91.6875C438.295 89.5757 440.983 87.1761 443.415 84.4883C445.847 81.8003 447.799 79.0802 449.271 76.3282C450.743 73.5762 451.479 71.0799 451.479 68.8399C451.479 67.368 451.222 66.3763 450.71 65.8643C450.262 65.2883 449.687 65.0001 448.983 65Z" stroke="white"/>
</g>
<g id="Vector_9">
<path d="M417.541 88.232C418.501 88.2321 419.109 88.7125 419.365 89.6724C419.685 90.6321 419.845 91.432 419.845 92.0718C419.845 93.3518 419.364 94.4078 418.404 95.2398C417.444 96.0717 416.229 96.5522 414.757 96.6802C414.181 96.6802 413.573 96.6159 412.933 96.4879C412.357 96.296 412.005 96.1363 411.877 96.0084C411.429 96.9043 410.789 98.2161 409.957 99.9439C409.189 101.672 408.485 103.432 407.845 105.224C407.205 107.016 406.885 108.52 406.885 109.736C406.885 110.44 407.077 111.048 407.461 111.56C407.909 112.072 408.549 112.296 409.381 112.232C410.661 112.104 412.037 111.56 413.509 110.6C415.045 109.576 416.549 108.36 418.021 106.952C419.492 105.48 420.709 104.04 421.669 102.632C421.797 102.44 421.925 102.344 422.053 102.344C422.181 102.344 422.277 102.44 422.341 102.632C422.405 102.824 422.405 102.984 422.341 103.112C421.445 104.52 420.197 106.056 418.597 107.72C417.061 109.384 415.396 110.824 413.604 112.04C411.877 113.256 410.245 113.928 408.709 114.056C407.493 114.184 406.5 113.928 405.732 113.288C405.029 112.648 404.677 111.656 404.677 110.312C404.677 108.904 404.997 107.272 405.637 105.416C406.277 103.56 407.044 101.768 407.94 100.04C408.836 98.3117 409.637 96.9039 410.341 95.816C410.277 95.752 410.149 95.5598 409.957 95.2398C409.829 94.8558 409.765 94.5358 409.765 94.2798C409.765 94.024 409.861 93.8961 410.053 93.8961C410.245 93.8961 410.597 94.0557 411.108 94.3755C411.556 93.6716 412.101 92.8403 412.741 91.8804C413.445 90.9204 414.181 90.0883 414.949 89.3843C415.781 88.6164 416.645 88.232 417.541 88.232ZM416.005 90.8238C415.429 90.8878 414.756 91.496 413.988 92.648C413.284 93.7359 412.773 94.5364 412.453 95.0484C412.581 95.1124 412.902 95.2077 413.413 95.3355C413.989 95.4635 414.341 95.5279 414.469 95.5279C415.365 95.3999 416.005 95.0155 416.389 94.3755C416.773 93.7356 416.9 92.9677 416.772 92.0718C416.772 91.816 416.709 91.5601 416.581 91.3043C416.517 90.9843 416.325 90.8238 416.005 90.8238Z" fill="white"/>
<path d="M417.541 88.232C418.501 88.2321 419.109 88.7125 419.365 89.6724C419.685 90.6321 419.845 91.432 419.845 92.0718C419.845 93.3518 419.364 94.4078 418.404 95.2398C417.444 96.0717 416.229 96.5522 414.757 96.6802C414.181 96.6802 413.573 96.6159 412.933 96.4879C412.357 96.296 412.005 96.1363 411.877 96.0084C411.429 96.9043 410.789 98.2161 409.957 99.9439C409.189 101.672 408.485 103.432 407.845 105.224C407.205 107.016 406.885 108.52 406.885 109.736C406.885 110.44 407.077 111.048 407.461 111.56C407.909 112.072 408.549 112.296 409.381 112.232C410.661 112.104 412.037 111.56 413.509 110.6C415.045 109.576 416.549 108.36 418.021 106.952C419.492 105.48 420.709 104.04 421.669 102.632C421.797 102.44 421.925 102.344 422.053 102.344C422.181 102.344 422.277 102.44 422.341 102.632C422.405 102.824 422.405 102.984 422.341 103.112C421.445 104.52 420.197 106.056 418.597 107.72C417.061 109.384 415.396 110.824 413.604 112.04C411.877 113.256 410.245 113.928 408.709 114.056C407.493 114.184 406.5 113.928 405.732 113.288C405.029 112.648 404.677 111.656 404.677 110.312C404.677 108.904 404.997 107.272 405.637 105.416C406.277 103.56 407.044 101.768 407.94 100.04C408.836 98.3117 409.637 96.9039 410.341 95.816C410.277 95.752 410.149 95.5598 409.957 95.2398C409.829 94.8558 409.765 94.5358 409.765 94.2798C409.765 94.024 409.861 93.8961 410.053 93.8961C410.245 93.8961 410.597 94.0557 411.108 94.3755C411.556 93.6716 412.101 92.8403 412.741 91.8804C413.445 90.9204 414.181 90.0883 414.949 89.3843C415.781 88.6164 416.645 88.232 417.541 88.232ZM416.005 90.8238C415.429 90.8878 414.756 91.496 413.988 92.648C413.284 93.7359 412.773 94.5364 412.453 95.0484C412.581 95.1124 412.902 95.2077 413.413 95.3355C413.989 95.4635 414.341 95.5279 414.469 95.5279C415.365 95.3999 416.005 95.0155 416.389 94.3755C416.773 93.7356 416.9 92.9677 416.772 92.0718C416.772 91.816 416.709 91.5601 416.581 91.3043C416.517 90.9843 416.325 90.8238 416.005 90.8238Z" stroke="white"/>
</g>
<g id="Vector_10">
<path d="M392.883 92.8401C393.459 92.8402 393.748 93.1601 393.748 93.8001C393.748 93.8641 393.715 93.9285 393.651 93.9925V94.1839C393.395 95.6558 393.203 97.1279 393.075 98.5999C392.947 100.008 392.883 101.448 392.883 102.92C392.883 105.48 393.076 107.336 393.459 108.488C393.907 109.639 394.515 110.216 395.283 110.216C395.859 110.216 396.531 109.96 397.299 109.448C398.067 108.872 398.931 108.135 399.891 107.24C400.723 106.472 401.524 105.608 402.292 104.648C403.059 103.688 403.892 102.472 404.788 101C404.916 100.68 405.107 100.52 405.363 100.52C405.811 100.52 405.875 100.84 405.555 101.48C404.915 102.504 404.115 103.624 403.155 104.84C402.195 106.056 401.171 107.304 400.083 108.584C399.123 109.736 398.131 110.728 397.107 111.56C396.147 112.328 395.219 112.712 394.323 112.712C393.491 112.712 392.755 112.328 392.115 111.56C391.475 110.728 390.931 109.383 390.483 107.528C390.419 106.952 390.323 106.119 390.195 105.032C390.131 103.944 390.099 102.824 390.099 101.672C390.099 100.456 390.131 99.3041 390.195 98.2161C390.323 97.0641 390.419 96.1676 390.483 95.5276C390.611 95.0157 390.868 94.44 391.251 93.8001C391.699 93.1602 392.243 92.8401 392.883 92.8401ZM396.531 83.72C396.851 83.72 397.139 83.7844 397.395 83.9124C397.715 84.0404 397.875 84.2643 397.875 84.5843C397.875 85.2881 397.427 85.8639 396.531 86.3118C395.635 86.7597 394.899 86.9837 394.323 86.9837C394.067 86.9836 393.779 86.9201 393.459 86.7923C393.203 86.6643 393.075 86.4077 393.075 86.0237C393.075 85.3199 393.491 84.7758 394.323 84.3919C395.219 83.944 395.955 83.7201 396.531 83.72Z" fill="white"/>
<path d="M392.883 92.8401C393.459 92.8402 393.748 93.1601 393.748 93.8001C393.748 93.8641 393.715 93.9285 393.651 93.9925V94.1839C393.395 95.6558 393.203 97.1279 393.075 98.5999C392.947 100.008 392.883 101.448 392.883 102.92C392.883 105.48 393.076 107.336 393.459 108.488C393.907 109.639 394.515 110.216 395.283 110.216C395.859 110.216 396.531 109.96 397.299 109.448C398.067 108.872 398.931 108.135 399.891 107.24C400.723 106.472 401.524 105.608 402.292 104.648C403.059 103.688 403.892 102.472 404.788 101C404.916 100.68 405.107 100.52 405.363 100.52C405.811 100.52 405.875 100.84 405.555 101.48C404.915 102.504 404.115 103.624 403.155 104.84C402.195 106.056 401.171 107.304 400.083 108.584C399.123 109.736 398.131 110.728 397.107 111.56C396.147 112.328 395.219 112.712 394.323 112.712C393.491 112.712 392.755 112.328 392.115 111.56C391.475 110.728 390.931 109.383 390.483 107.528C390.419 106.952 390.323 106.119 390.195 105.032C390.131 103.944 390.099 102.824 390.099 101.672C390.099 100.456 390.131 99.3041 390.195 98.2161C390.323 97.0641 390.419 96.1676 390.483 95.5276C390.611 95.0157 390.868 94.44 391.251 93.8001C391.699 93.1602 392.243 92.8401 392.883 92.8401ZM396.531 83.72C396.851 83.72 397.139 83.7844 397.395 83.9124C397.715 84.0404 397.875 84.2643 397.875 84.5843C397.875 85.2881 397.427 85.8639 396.531 86.3118C395.635 86.7597 394.899 86.9837 394.323 86.9837C394.067 86.9836 393.779 86.9201 393.459 86.7923C393.203 86.6643 393.075 86.4077 393.075 86.0237C393.075 85.3199 393.491 84.7758 394.323 84.3919C395.219 83.944 395.955 83.7201 396.531 83.72Z" stroke="white"/>
</g>
<path id="Vector_11" d="M392.023 123.464C390.359 124.296 388.823 124.712 387.415 124.712C385.687 124.712 384.247 124.232 383.095 123.272C381.943 122.376 381.015 121.288 380.311 120.008C379.671 118.792 379.191 117.736 378.871 116.84C377.975 113.64 377.527 109.992 377.527 105.896C377.527 101.608 377.975 97.416 378.871 93.32C378.423 93.768 377.879 94.536 377.239 95.624C376.599 96.648 375.991 97.704 375.415 98.792C374.903 99.816 374.487 100.616 374.167 101.192C373.143 103.176 372.215 105.128 371.383 107.048C370.551 108.968 370.071 110.12 369.943 110.504C369.879 110.888 369.815 111.336 369.751 111.848C369.687 112.296 369.367 112.52 368.791 112.52H368.599C368.023 112.52 367.575 112.296 367.255 111.848C366.999 111.336 366.903 110.792 366.967 110.216C367.031 109.896 367.063 109.576 367.063 109.256C367.127 108.872 367.159 108.456 367.159 108.008C367.159 106.536 367.031 104.968 366.775 103.304C366.519 101.576 366.231 100.104 365.911 98.888C365.719 100.616 365.111 102.408 364.087 104.264C363.127 106.056 362.199 107.496 361.303 108.584C360.343 109.672 359.351 110.632 358.327 111.464C357.303 112.232 356.343 112.616 355.447 112.616C354.679 112.616 353.943 112.232 353.239 111.464C352.599 110.696 352.087 109.384 351.703 107.528C351.575 106.824 351.447 105.768 351.319 104.36C351.255 102.952 351.255 101.544 351.319 100.136C350.935 101.032 350.327 102.28 349.495 103.88C348.663 105.48 347.735 107.112 346.711 108.776C345.687 110.376 344.599 111.752 343.447 112.904C342.359 113.992 341.271 114.536 340.183 114.536C339.351 114.536 338.711 114.184 338.263 113.48C337.879 112.776 337.655 111.976 337.591 111.08C337.463 110.184 337.431 109.48 337.495 108.968C337.879 106.088 338.871 103.176 340.471 100.232C342.071 97.288 344.055 94.664 346.423 92.36C348.855 90.056 351.415 88.424 354.103 87.464C354.615 87.272 355.063 87.144 355.447 87.08C355.895 87.016 356.311 86.984 356.695 86.984C357.591 86.984 358.327 87.208 358.903 87.656C359.479 88.04 359.767 88.584 359.767 89.288C359.767 89.928 359.479 90.696 358.903 91.592L358.135 92.84C358.071 92.968 357.975 93.032 357.847 93.032C357.719 93.032 357.623 92.968 357.559 92.84C357.495 92.648 357.527 92.456 357.655 92.264L358.327 91.112C358.647 90.472 358.807 89.992 358.807 89.672C358.807 89.224 358.615 88.904 358.231 88.712C357.911 88.52 357.495 88.424 356.983 88.424C356.407 88.424 355.863 88.52 355.351 88.712C354.007 89.16 352.823 89.736 351.799 90.44C350.839 91.144 349.879 92.04 348.919 93.128C347.767 94.408 346.519 96.008 345.175 97.928C343.895 99.848 342.743 101.8 341.719 103.784C340.695 105.704 340.087 107.464 339.895 109.064C339.767 109.576 339.703 110.248 339.703 111.08C339.703 111.656 339.767 112.232 339.895 112.808C340.087 113.32 340.407 113.576 340.855 113.576C341.431 113.576 341.975 113.288 342.487 112.712C343.063 112.136 343.479 111.656 343.735 111.272C344.439 110.248 345.303 108.84 346.327 107.048C347.351 105.256 348.343 103.4 349.303 101.48C350.263 99.56 350.999 97.928 351.511 96.584C351.575 96.392 351.607 96.2 351.607 96.008C351.607 95.816 351.639 95.688 351.703 95.624C351.831 95.048 352.087 94.44 352.471 93.8C352.919 93.16 353.463 92.84 354.103 92.84C354.615 92.84 354.871 93.16 354.871 93.8V94.184C354.615 95.592 354.423 97.032 354.295 98.504C354.167 99.976 354.103 101.448 354.103 102.92C354.103 105.48 354.295 107.336 354.679 108.488C355.127 109.64 355.735 110.216 356.503 110.216C357.079 110.216 357.751 109.96 358.519 109.448C359.287 108.872 360.151 108.136 361.111 107.24C361.623 106.728 362.199 105.896 362.839 104.744C363.543 103.528 364.119 102.216 364.567 100.808C365.079 99.336 365.271 97.96 365.143 96.68C364.823 96.04 364.663 95.528 364.663 95.144C364.663 94.888 364.759 94.76 364.951 94.76C365.399 94.76 365.879 95.08 366.391 95.72C366.839 96.168 367.319 97.128 367.831 98.6C368.343 100.008 368.759 101.608 369.079 103.4C369.399 105.128 369.463 106.792 369.271 108.392C369.719 107.688 370.327 106.6 371.095 105.128C371.863 103.656 372.695 101.96 373.591 100.04C374.423 98.376 375.255 96.648 376.087 94.856C376.983 93.064 377.911 91.304 378.871 89.576C379.383 88.744 379.959 88.104 380.599 87.656C381.175 87.272 381.687 87.08 382.135 87.08C382.711 87.08 382.999 87.4 382.999 88.04C382.999 88.104 382.967 88.232 382.903 88.424C382.903 88.552 382.871 88.712 382.807 88.904C382.039 91.272 381.367 94.152 380.791 97.544C380.215 100.872 379.927 104.168 379.927 107.432C379.927 109.352 380.055 111.176 380.311 112.904C380.567 114.632 380.951 116.168 381.463 117.512C382.231 119.432 383.319 120.904 384.727 121.928C386.199 123.016 387.639 123.56 389.047 123.56C389.943 123.56 390.775 123.336 391.543 122.888C392.311 122.44 392.919 121.736 393.367 120.776C393.495 120.648 393.623 120.584 393.751 120.584C394.007 120.584 394.135 120.744 394.135 121.064C394.135 121.32 393.911 121.768 393.463 122.408C393.143 122.792 392.663 123.144 392.023 123.464Z" fill="white"/>
<g id="Vector_12">
<path d="M308.372 51.464C309.396 51.464 310.356 51.784 311.251 52.424C312.211 53.0639 313.075 54.12 313.843 55.5919C313.971 55.9759 314.036 56.2325 314.036 56.3605C314.036 56.8722 313.875 57.1281 313.555 57.1281C313.235 57.1278 312.915 56.8721 312.595 56.3605C312.339 55.5925 311.923 55.0477 311.347 54.7277C310.771 54.3439 310.131 54.1525 309.427 54.1525C308.019 54.1526 306.515 54.6638 304.916 55.6876C303.38 56.7115 302.227 57.6716 301.459 58.5675C300.948 59.2714 300.435 60.0076 299.923 60.7755C299.475 61.4795 299.028 62.2482 298.58 63.0802C300.82 62.3762 303.092 61.8324 305.396 61.4484C307.764 61.0004 310.036 60.7755 312.211 60.7755C317.651 60.7755 322.099 61.7682 325.555 63.7521C329.075 65.672 331.668 68.2319 333.332 71.4318C335.059 74.6317 335.923 78.1198 335.923 81.8956C335.923 86.1835 334.804 90.5037 332.564 94.8556C330.388 99.2076 327.283 102.952 323.251 106.088C319.923 108.52 316.243 110.504 312.211 112.04C308.18 113.512 303.891 114.248 299.347 114.248C298.515 114.248 297.619 114.184 296.66 114.056C295.764 113.992 294.835 113.928 293.875 113.864C294.131 114.696 294.388 115.529 294.644 116.36C294.9 117.256 295.156 118.12 295.412 118.952C295.604 119.4 295.7 119.816 295.7 120.2C295.7 120.648 295.539 120.872 295.219 120.872C294.835 120.872 294.419 120.552 293.971 119.912C293.075 118.12 292.276 115.976 291.572 113.48C291.38 113.48 291.188 113.448 290.996 113.384C290.804 113.384 290.611 113.352 290.419 113.288C288.756 112.968 287.124 112.328 285.524 111.368C283.988 110.344 282.708 109.064 281.684 107.528C280.724 105.992 280.244 104.264 280.244 102.344C280.244 101.576 280.34 100.808 280.532 100.04C280.724 99.6562 281.012 99.464 281.396 99.464C281.716 99.4641 281.972 99.592 282.164 99.8478C282.42 100.04 282.484 100.296 282.356 100.616C282.164 101.256 282.068 101.96 282.068 102.728C282.068 104.328 282.516 105.864 283.412 107.336C284.372 108.744 285.524 109.896 286.868 110.792C288.276 111.624 289.652 112.04 290.996 112.04H291.284C290.644 109.352 290.132 106.472 289.748 103.4C289.428 100.264 289.268 97.0638 289.268 93.7999C289.268 89.128 289.62 84.4562 290.324 79.7843C291.028 75.1125 292.115 70.7922 293.587 66.8243C291.028 68.0403 288.915 69.352 287.251 70.7599C286.931 71.0159 286.611 71.1437 286.292 71.1437C285.716 71.1436 285.427 70.8561 285.427 70.2804C285.427 69.9604 285.556 69.7038 285.812 69.5118C287.028 68.552 288.372 67.6562 289.843 66.8243C291.315 65.9924 292.852 65.2563 294.452 64.6163C295.796 61.3526 297.427 58.6004 299.347 56.3605C300.307 55.2085 301.62 54.1198 303.284 53.0958C304.948 52.0079 306.644 51.464 308.372 51.464ZM311.156 62.8878C306.676 62.8878 302.099 63.6882 297.427 65.2882C295.379 69.576 293.844 74.152 292.82 79.0157C291.796 83.8796 291.284 88.7437 291.284 93.6075C291.284 96.8075 291.476 100.008 291.86 103.208C292.308 106.344 292.852 109.384 293.492 112.328C294.004 112.392 294.516 112.424 295.028 112.424H296.564C299.828 112.424 302.996 112.072 306.068 111.368C309.204 110.664 312.052 109.704 314.612 108.488C317.236 107.208 319.38 105.832 321.043 104.36C324.755 101.096 327.54 97.4481 329.396 93.4161C331.316 89.3841 332.276 85.4475 332.276 81.6075C332.276 78.2157 331.507 75.1119 329.971 72.296C328.499 69.4801 326.196 67.2076 323.06 65.4796C319.924 63.7516 315.956 62.8878 311.156 62.8878Z" fill="white"/>
<path d="M308.372 51.464C309.396 51.464 310.356 51.784 311.251 52.424C312.211 53.0639 313.075 54.12 313.843 55.5919C313.971 55.9759 314.036 56.2325 314.036 56.3605C314.036 56.8722 313.875 57.1281 313.555 57.1281C313.235 57.1278 312.915 56.8721 312.595 56.3605C312.339 55.5925 311.923 55.0477 311.347 54.7277C310.771 54.3439 310.131 54.1525 309.427 54.1525C308.019 54.1526 306.515 54.6638 304.916 55.6876C303.38 56.7115 302.227 57.6716 301.459 58.5675C300.948 59.2714 300.435 60.0076 299.923 60.7755C299.475 61.4795 299.028 62.2482 298.58 63.0802C300.82 62.3762 303.092 61.8324 305.396 61.4484C307.764 61.0004 310.036 60.7755 312.211 60.7755C317.651 60.7755 322.099 61.7682 325.555 63.7521C329.075 65.672 331.668 68.2319 333.332 71.4318C335.059 74.6317 335.923 78.1198 335.923 81.8956C335.923 86.1835 334.804 90.5037 332.564 94.8556C330.388 99.2076 327.283 102.952 323.251 106.088C319.923 108.52 316.243 110.504 312.211 112.04C308.18 113.512 303.891 114.248 299.347 114.248C298.515 114.248 297.619 114.184 296.66 114.056C295.764 113.992 294.835 113.928 293.875 113.864C294.131 114.696 294.388 115.529 294.644 116.36C294.9 117.256 295.156 118.12 295.412 118.952C295.604 119.4 295.7 119.816 295.7 120.2C295.7 120.648 295.539 120.872 295.219 120.872C294.835 120.872 294.419 120.552 293.971 119.912C293.075 118.12 292.276 115.976 291.572 113.48C291.38 113.48 291.188 113.448 290.996 113.384C290.804 113.384 290.611 113.352 290.419 113.288C288.756 112.968 287.124 112.328 285.524 111.368C283.988 110.344 282.708 109.064 281.684 107.528C280.724 105.992 280.244 104.264 280.244 102.344C280.244 101.576 280.34 100.808 280.532 100.04C280.724 99.6562 281.012 99.464 281.396 99.464C281.716 99.4641 281.972 99.592 282.164 99.8478C282.42 100.04 282.484 100.296 282.356 100.616C282.164 101.256 282.068 101.96 282.068 102.728C282.068 104.328 282.516 105.864 283.412 107.336C284.372 108.744 285.524 109.896 286.868 110.792C288.276 111.624 289.652 112.04 290.996 112.04H291.284C290.644 109.352 290.132 106.472 289.748 103.4C289.428 100.264 289.268 97.0638 289.268 93.7999C289.268 89.128 289.62 84.4562 290.324 79.7843C291.028 75.1125 292.115 70.7922 293.587 66.8243C291.028 68.0403 288.915 69.352 287.251 70.7599C286.931 71.0159 286.611 71.1437 286.292 71.1437C285.716 71.1436 285.427 70.8561 285.427 70.2804C285.427 69.9604 285.556 69.7038 285.812 69.5118C287.028 68.552 288.372 67.6562 289.843 66.8243C291.315 65.9924 292.852 65.2563 294.452 64.6163C295.796 61.3526 297.427 58.6004 299.347 56.3605C300.307 55.2085 301.62 54.1198 303.284 53.0958C304.948 52.0079 306.644 51.464 308.372 51.464ZM311.156 62.8878C306.676 62.8878 302.099 63.6882 297.427 65.2882C295.379 69.576 293.844 74.152 292.82 79.0157C291.796 83.8796 291.284 88.7437 291.284 93.6075C291.284 96.8075 291.476 100.008 291.86 103.208C292.308 106.344 292.852 109.384 293.492 112.328C294.004 112.392 294.516 112.424 295.028 112.424H296.564C299.828 112.424 302.996 112.072 306.068 111.368C309.204 110.664 312.052 109.704 314.612 108.488C317.236 107.208 319.38 105.832 321.043 104.36C324.755 101.096 327.54 97.4481 329.396 93.4161C331.316 89.3841 332.276 85.4475 332.276 81.6075C332.276 78.2157 331.507 75.1119 329.971 72.296C328.499 69.4801 326.196 67.2076 323.06 65.4796C319.924 63.7516 315.956 62.8878 311.156 62.8878Z" stroke="white"/>
</g>
</g>
</g>
</svg>
