<svg width="72" height="72" viewBox="0 0 72 72" fill="none" xmlns="http://www.w3.org/2000/svg">
<g id="Insta-contact">
<path id="Vector" d="M36 0C26.2305 0 25.002 0.045 21.1635 0.216C17.325 0.396 14.7105 0.999 12.42 1.89C10.0163 2.79147 7.83963 4.20929 6.0435 6.0435C4.20929 7.83963 2.79147 10.0163 1.89 12.42C0.999 14.706 0.3915 17.325 0.216 21.15C0.045 24.9975 0 26.2215 0 36.0045C0 45.7785 0.045 47.0025 0.216 50.841C0.396 54.675 0.999 57.2895 1.89 59.58C2.8125 61.947 4.041 63.954 6.0435 65.9565C8.0415 67.959 10.0485 69.192 12.4155 70.11C14.7105 71.001 17.3205 71.6085 21.1545 71.784C24.9975 71.955 26.2215 72 36 72C45.7785 72 46.998 71.955 50.841 71.784C54.6705 71.604 57.294 71.001 59.5845 70.11C61.9866 69.208 64.1617 67.7902 65.9565 65.9565C67.959 63.954 69.1875 61.947 70.11 59.58C70.9965 57.2895 71.604 54.675 71.784 50.841C71.955 47.0025 72 45.7785 72 36C72 26.2215 71.955 24.9975 71.784 21.1545C71.604 17.325 70.9965 14.706 70.11 12.42C69.2085 10.0163 67.7907 7.83963 65.9565 6.0435C64.1604 4.20929 61.9837 2.79147 59.58 1.89C57.285 0.999 54.666 0.3915 50.8365 0.216C46.9935 0.045 45.774 0 35.991 0H36ZM32.7735 6.489H36.0045C45.6165 6.489 46.755 6.5205 50.5485 6.696C54.0585 6.8535 55.9665 7.443 57.2355 7.9335C58.914 8.586 60.1155 9.369 61.3755 10.629C62.6355 11.889 63.414 13.086 64.0665 14.769C64.5615 16.0335 65.1465 17.9415 65.304 21.4515C65.4795 25.245 65.5155 26.3835 65.5155 35.991C65.5155 45.5985 65.4795 46.7415 65.304 50.535C65.1465 54.045 64.557 55.9485 64.0665 57.2175C63.4852 58.7786 62.5646 60.1911 61.371 61.353C60.111 62.613 58.914 63.3915 57.231 64.044C55.971 64.539 54.063 65.124 50.5485 65.286C46.755 65.457 45.6165 65.4975 36.0045 65.4975C26.3925 65.4975 25.2495 65.457 21.456 65.286C17.946 65.124 16.0425 64.539 14.7735 64.044C13.2112 63.4647 11.7972 62.5455 10.6335 61.353C9.43773 60.1902 8.51548 58.7761 7.9335 57.213C7.443 55.9485 6.8535 54.0405 6.696 50.5305C6.525 46.737 6.489 45.5985 6.489 35.982C6.489 26.3655 6.525 25.236 6.696 21.4425C6.858 17.9325 7.443 16.0245 7.938 14.7555C8.5905 13.077 9.3735 11.8755 10.6335 10.6155C11.8935 9.3555 13.0905 8.577 14.7735 7.9245C16.0425 7.4295 17.946 6.8445 21.456 6.6825C24.777 6.5295 26.064 6.4845 32.7735 6.48V6.489ZM55.2195 12.465C54.6522 12.465 54.0904 12.5767 53.5663 12.7938C53.0422 13.0109 52.5659 13.3291 52.1648 13.7303C51.7636 14.1314 51.4454 14.6077 51.2283 15.1318C51.0112 15.6559 50.8995 16.2177 50.8995 16.785C50.8995 17.3523 51.0112 17.9141 51.2283 18.4382C51.4454 18.9623 51.7636 19.4386 52.1648 19.8397C52.5659 20.2409 53.0422 20.5591 53.5663 20.7762C54.0904 20.9933 54.6522 21.105 55.2195 21.105C56.3652 21.105 57.464 20.6499 58.2742 19.8397C59.0844 19.0295 59.5395 17.9307 59.5395 16.785C59.5395 15.6393 59.0844 14.5405 58.2742 13.7303C57.464 12.9201 56.3652 12.465 55.2195 12.465ZM36.0045 17.514C33.5523 17.4757 31.117 17.9257 28.8404 18.8376C26.5638 19.7496 24.4913 21.1053 22.7437 22.8259C20.996 24.5465 19.6081 26.5976 18.6608 28.8597C17.7134 31.1218 17.2256 33.5498 17.2256 36.0023C17.2256 38.4547 17.7134 40.8827 18.6608 43.1448C19.6081 45.4069 20.996 47.458 22.7437 49.1786C24.4913 50.8992 26.5638 52.2549 28.8404 53.1669C31.117 54.0788 33.5523 54.5288 36.0045 54.4905C40.8579 54.4148 45.487 52.4336 48.8924 48.9746C52.2978 45.5156 54.2066 40.8563 54.2066 36.0023C54.2066 31.1482 52.2978 26.4889 48.8924 23.0299C45.487 19.5709 40.8579 17.5897 36.0045 17.514ZM36.0045 23.9985C37.5806 23.9985 39.1412 24.3089 40.5973 24.9121C42.0534 25.5152 43.3764 26.3992 44.4908 27.5137C45.6053 28.6281 46.4893 29.9511 47.0924 31.4072C47.6956 32.8633 48.006 34.4239 48.006 36C48.006 37.5761 47.6956 39.1367 47.0924 40.5928C46.4893 42.0489 45.6053 43.3719 44.4908 44.4863C43.3764 45.6008 42.0534 46.4848 40.5973 47.0879C39.1412 47.6911 37.5806 48.0015 36.0045 48.0015C32.8215 48.0015 29.7689 46.7371 27.5182 44.4863C25.2674 42.2356 24.003 39.183 24.003 36C24.003 32.817 25.2674 29.7644 27.5182 27.5137C29.7689 25.2629 32.8215 23.9985 36.0045 23.9985Z" fill="url(#paint0_linear_175_20)"/>
</g>
<defs>
<linearGradient id="paint0_linear_175_20" x1="0" y1="36" x2="72" y2="36" gradientUnits="userSpaceOnUse">
<stop stop-color="#6BBAFF"/>
<stop offset="1" stop-color="#0F6EC2"/>
</linearGradient>
</defs>
</svg>
