<svg width="72" height="72" viewBox="0 0 72 72" fill="none" xmlns="http://www.w3.org/2000/svg">
<path id="Java" d="M32.4701 26.8102C29.6753 23.2001 28.6213 20.5798 28.3926 18.6731C28.1765 16.8722 28.6629 15.4454 29.6278 14.0683C30.6698 12.5806 32.2334 11.1971 34.223 9.56425C36.0822 8.03811 38.4087 6.22485 40.2341 4.17069L34.494 0C32.9631 1.72282 31.0784 3.15277 29.274 4.63379C27.3077 6.24766 25.0439 8.16878 23.4073 10.5051C21.6933 12.9518 20.6495 15.8684 21.0721 19.3913C21.4821 22.8085 23.2358 26.4926 26.4378 30.6288L32.4701 26.8102ZM37.0715 16.7229C38.1201 14.4473 40.2459 12.1649 43.6253 9.5454L48.4175 14.6009C45.3539 16.9753 44.2582 18.4384 43.8687 19.2839C43.4854 20.1152 43.7395 20.9455 43.9972 21.7719C44.3046 22.757 44.8167 24.3991 44.784 26.174C44.7409 28.5225 43.8507 31.0073 41.7215 33.8955L35.5944 30.2021C37.147 28.0964 37.4073 26.8358 37.4217 26.0631C37.4397 25.0806 37.1562 24.5294 36.6971 22.8685C36.2568 21.2761 35.9236 19.2146 37.0715 16.7229ZM15.2498 32.0482C16.9774 31.0026 19.1142 30.4708 21.1105 30.0366L19.3884 23.5627C16.3952 24.2138 13.6765 25.0966 11.6126 26.2484C9.73474 27.2965 7.36342 29.1716 7.36342 32.0485C7.36342 34.4664 9.1517 36.3968 11.2863 37.6609C11.1299 38.2701 11.0451 38.9057 11.0451 39.5649C11.0451 42.8289 12.5843 45.5809 15.2524 47.6251C14.8606 48.6208 14.6831 49.7335 14.739 50.8475C11.8767 51.3492 9.08271 52.0886 6.74987 53.0554C5.1576 53.7153 3.59 54.5586 2.36749 55.6446C1.13677 56.7376 0 58.321 0 60.3475C0 61.7691 0.694482 62.9167 1.3763 63.7078C2.07229 64.5155 2.96709 65.2036 3.89566 65.7869C5.75927 66.9575 8.25583 68.0142 11.1066 68.9044C16.844 70.6963 24.6154 72 33.1354 72C45.3856 72 53.9838 70.7219 59.6065 69.3955C62.4175 68.7323 64.4804 68.0581 65.8805 67.5281C66.6522 67.2361 67.4272 66.9259 68.1492 66.5403C68.1886 66.519 64.3626 60.8296 64.3799 60.8203C62.3005 61.7994 60.0056 62.4197 57.748 62.9524C52.7858 64.1229 44.8164 65.3415 33.1354 65.3415C25.3886 65.3415 18.4332 64.1482 13.5104 62.6108C11.5547 62.0002 9.50603 61.2857 7.83814 60.1495C8.26294 59.8455 8.90867 59.4853 9.81784 59.1084C11.8721 58.2571 14.6885 57.5586 17.6946 57.1401C18.538 57.9491 19.5452 58.6629 20.6954 59.2699C24.2493 61.1446 29.1322 62.0122 34.9763 62.0122C39.7993 62.0122 43.2888 61.5734 45.6466 61.101C46.9551 60.8389 48.2735 60.543 49.4829 60.0076C49.4947 60.0026 46.2383 54.0306 46.2383 54.0306C45.5247 54.2666 44.7965 54.4514 44.0543 54.6002C42.2568 54.9601 39.3034 55.3536 34.9763 55.3536C29.7751 55.3536 26.3743 54.5566 24.4056 53.5182C22.8394 52.6922 22.2379 51.776 22.115 50.7775C25.3104 51.6192 29.0942 52.0244 33.3655 52.0244C38.7541 52.0244 42.6397 51.5466 45.2512 51.0366C46.6712 50.7592 48.1067 50.44 49.4288 49.8823C49.5036 49.85 46.271 43.867 46.271 43.867C46.0693 43.9416 45.2453 44.2255 43.6968 44.5278C41.6335 44.931 38.271 45.3658 33.3655 45.3658C27.4632 45.3658 23.5301 44.4856 21.2068 43.2907C19.4727 42.3988 18.7115 41.4003 18.4852 40.3286C23.0493 41.4156 28.8091 42.0362 34.9763 42.0362C41.6648 42.0362 47.8681 41.3061 52.5866 40.0463L50.5013 33.6604C46.62 34.6968 41.1475 35.3777 34.9763 35.3777C28.6299 35.3777 23.0291 34.6575 19.1371 33.5749C17.3 33.0635 16.0233 32.5205 15.2498 32.0482ZM57.3997 34.5314C61.8634 34.1645 63.5084 35.1583 64.0393 35.6726C64.5883 36.2047 64.7805 37.0293 64.54 37.8993C64.1122 39.446 62.9101 40.9459 60.957 42.3239C59.0108 43.6972 56.5375 44.7885 54.0619 45.5343L56.3895 51.8516C59.4364 50.9334 62.7158 49.5287 65.4866 47.5735C68.2508 45.6232 70.7305 42.9621 71.6833 39.5143C72.3629 37.0556 72.0949 33.7187 69.4227 31.1294C66.7318 28.5224 62.3943 27.4349 56.7333 27.9003L57.3997 34.5314Z" fill="#EDEDED"/>
</svg>
