<svg width="72" height="72" viewBox="0 0 72 72" fill="none" xmlns="http://www.w3.org/2000/svg">
<path id="JS" d="M41.3376 52.22L37.9056 56.972C41.1616 59.876 45.2096 61.328 50.0496 61.328C53.7456 61.24 56.5616 60.2868 58.4976 58.468C60.4628 56.62 61.4456 54.42 61.4456 51.868C61.4456 49.3748 60.7564 47.3212 59.3776 45.708C57.9988 44.0948 55.6816 42.804 52.4256 41.836C49.7268 41.0148 47.8204 40.2668 46.7056 39.592C45.5908 38.888 45.0336 38.0372 45.0336 37.04C45.0336 36.1308 45.4884 35.3972 46.3976 34.84C47.3068 34.2828 48.5244 34.004 50.0496 34.004C51.1644 34.004 52.4256 34.224 53.8336 34.664C55.2416 35.0452 56.4884 35.6612 57.5736 36.512L60.6536 31.716C57.9548 29.5452 54.3764 28.46 49.9176 28.46C46.7204 28.46 44.0948 29.2812 42.0416 30.924C39.9296 32.5668 38.8736 34.6052 38.8736 37.04C38.9028 39.6212 39.7536 41.6308 41.4256 43.068C43.1268 44.5052 45.5468 45.6788 48.6856 46.588C51.2964 47.4092 53.0708 48.2308 54.0096 49.052C54.9188 49.8732 55.3736 50.8708 55.3736 52.044C55.3736 53.188 54.9188 54.068 54.0096 54.684C53.0708 55.3292 51.7216 55.652 49.9616 55.652C47.0868 55.6812 44.2124 54.5372 41.3376 52.22ZM19.2162 54.772C18.3362 54.244 17.5149 53.4668 16.7522 52.44L12.6162 55.828C13.8482 57.9108 15.3736 59.3628 17.1922 60.184C18.8936 60.9468 20.8442 61.328 23.0442 61.328C24.2469 61.328 25.4936 61.1372 26.7842 60.756C28.0748 60.3748 29.2628 59.7292 30.3484 58.82C32.2548 57.2948 33.2524 54.8012 33.3404 51.34V28.988H27.4002V50.196C27.4002 52.22 26.9456 53.6428 26.0362 54.464C25.1269 55.256 23.9829 55.652 22.6042 55.652C21.2842 55.652 20.1549 55.3588 19.2162 54.772ZM0 12C0 5.3726 5.3726 0 12 0H60C66.6276 0 72 5.3726 72 12V60C72 66.6276 66.6276 72 60 72H12C5.3726 72 0 66.6276 0 60V12ZM12 8C9.79088 8 8 9.79088 8 12V60C8 62.2092 9.79088 64 12 64H60C62.2092 64 64 62.2092 64 60V12C64 9.79088 62.2092 8 60 8H12Z" fill="#EDEDED"/>
</svg>
