<svg width="64" height="64" viewBox="0 0 64 64" fill="none" xmlns="http://www.w3.org/2000/svg">
<g id="Kg">
<path id="layer2" d="M33 26.0086L37 13.0086M33 7.01056V11.0086M43 26.0086H23L14 11.0086C19.7909 8.24748 26.1469 6.87773 32.561 7.00856C39.544 7.00856 46.222 7.97056 52 11.0086L43 26.0086Z" stroke="#202020" stroke-width="2" stroke-miterlimit="10" stroke-linecap="round" stroke-linejoin="round"/>
<path id="layer1" d="M29.9152 49.8228L27.9152 37.9138C27.7714 36.9981 27.4471 36.1202 26.9613 35.3308C26.4755 34.5415 25.8377 33.8565 25.085 33.3156C24.3323 32.7747 23.4797 32.3887 22.5767 32.1799C21.6736 31.9711 20.7381 31.9438 19.8244 32.0994C18.9107 32.2551 18.037 32.5907 17.254 33.0867C16.471 33.5827 15.7943 34.2292 15.2632 34.9889C14.7321 35.7485 14.3571 36.606 14.1601 37.5117C13.963 38.4173 13.9477 39.3531 14.1152 40.2648L16.1152 52.1738C16.259 53.0894 16.5833 53.9674 17.0691 54.7567C17.555 55.5461 18.1927 56.231 18.9454 56.7719C19.6981 57.3128 20.5507 57.6989 21.4537 57.9077C22.3568 58.1164 23.2923 58.1438 24.206 57.9881C25.1197 57.8324 25.9934 57.4969 26.7764 57.0009C27.5594 56.5049 28.2361 55.8583 28.7672 55.0987C29.2983 54.3391 29.6733 53.4815 29.8704 52.5759C30.0674 51.6702 30.0827 50.7344 29.9152 49.8228ZM46.2852 32.1488C45.3813 31.9932 44.4556 32.0172 43.5609 32.2194C42.6663 32.4217 41.8203 32.7983 41.0712 33.3276C40.3222 33.8569 39.6848 34.5287 39.1954 35.3044C38.706 36.0802 38.3743 36.9448 38.2192 37.8488L36.1232 49.7488C35.7964 51.5776 36.2032 53.4615 37.2554 54.9926C38.3077 56.5236 39.9207 57.5785 41.7452 57.9288C42.6491 58.0844 43.5748 58.0604 44.4695 57.8581C45.3641 57.6558 46.2101 57.2793 46.9592 56.7499C47.7082 56.2206 48.3457 55.5489 48.835 54.7731C49.3244 53.9973 49.6561 53.1328 49.8112 52.2288L51.9062 40.3288C52.2331 38.5001 51.8264 36.6163 50.7744 35.0853C49.7223 33.5542 48.1095 32.4993 46.2852 32.1488Z" stroke="#202020" stroke-width="2" stroke-miterlimit="10" stroke-linecap="round" stroke-linejoin="round"/>
<rect id="layer3" x="1" y="1" width="62" height="62" rx="9" stroke="#202020" stroke-width="2"/>
</g>
</svg>
