<svg width="72" height="72" viewBox="0 0 72 72" fill="none" xmlns="http://www.w3.org/2000/svg">
<g id="Linkdin-contact">
<path id="Vector" d="M0 5.157C0 2.3085 2.367 0 5.2875 0H66.7125C69.633 0 72 2.3085 72 5.157V66.843C72 69.6915 69.633 72 66.7125 72H5.2875C2.367 72 0 69.6915 0 66.843V5.157ZM22.2435 60.273V27.7605H11.439V60.273H22.2435ZM16.8435 23.319C20.61 23.319 22.9545 20.826 22.9545 17.703C22.887 14.5125 20.6145 12.087 16.9155 12.087C13.2165 12.087 10.8 14.517 10.8 17.703C10.8 20.826 13.1445 23.319 16.7715 23.319H16.8435ZM38.9295 60.273V42.1155C38.9295 41.1435 39.0015 40.1715 39.2895 39.4785C40.068 37.539 41.8455 35.5275 44.8335 35.5275C48.744 35.5275 50.3055 38.5065 50.3055 42.8805V60.273H61.11V41.625C61.11 31.635 55.782 26.991 48.672 26.991C42.939 26.991 40.3695 30.141 38.9295 32.3595V32.472H38.8575L38.9295 32.3595V27.7605H28.1295C28.2645 30.8115 28.1295 60.273 28.1295 60.273H38.9295Z" fill="url(#paint0_linear_175_18)"/>
</g>
<defs>
<linearGradient id="paint0_linear_175_18" x1="0" y1="36" x2="72" y2="36" gradientUnits="userSpaceOnUse">
<stop stop-color="#6BBAFF"/>
<stop offset="1" stop-color="#0F6EC2"/>
</linearGradient>
</defs>
</svg>
