<svg width="934" height="622" viewBox="0 0 934 622" fill="none" xmlns="http://www.w3.org/2000/svg">
<g id="R1">
<path fill-rule="evenodd" clip-rule="evenodd" d="M900.546 622L43.1113 130.493L43.3863 130.013L900.821 621.52L900.546 622Z" fill="url(#paint0_linear_68_533)"/>
<path fill-rule="evenodd" clip-rule="evenodd" d="M848.567 495.259L50.876 121.094L51.1108 120.593L848.802 494.758L848.567 495.259Z" fill="url(#paint1_linear_68_533)"/>
<path fill-rule="evenodd" clip-rule="evenodd" d="M903.927 419.999L34.3221 172.031L34.4737 171.499L904.079 419.467L903.927 419.999Z" fill="url(#paint2_linear_68_533)"/>
<path fill-rule="evenodd" clip-rule="evenodd" d="M933.75 473.116L109.506 54.6704L109.756 54.1768L934 472.622L933.75 473.116Z" fill="url(#paint3_linear_68_533)"/>
<path fill-rule="evenodd" clip-rule="evenodd" d="M854.116 547.295L0 214.089L0.20095 213.573L854.317 546.78L854.116 547.295Z" fill="url(#paint4_linear_68_533)"/>
<path fill-rule="evenodd" clip-rule="evenodd" d="M602.861 522.864L152.57 0.361454L152.989 0L603.28 522.503L602.861 522.864Z" fill="url(#paint5_linear_68_533)"/>
<path fill-rule="evenodd" clip-rule="evenodd" d="M917.2 341.401L105.126 97.8615L105.285 97.3313L917.359 340.871L917.2 341.401Z" fill="url(#paint6_linear_68_533)"/>
</g>
<defs>
<linearGradient id="paint0_linear_68_533" x1="0" y1="311" x2="934" y2="311" gradientUnits="userSpaceOnUse">
<stop stop-color="#6BBAFF"/>
<stop offset="1" stop-color="#0F6EC2"/>
</linearGradient>
<linearGradient id="paint1_linear_68_533" x1="0" y1="311" x2="934" y2="311" gradientUnits="userSpaceOnUse">
<stop stop-color="#6BBAFF"/>
<stop offset="1" stop-color="#0F6EC2"/>
</linearGradient>
<linearGradient id="paint2_linear_68_533" x1="0" y1="311" x2="934" y2="311" gradientUnits="userSpaceOnUse">
<stop stop-color="#6BBAFF"/>
<stop offset="1" stop-color="#0F6EC2"/>
</linearGradient>
<linearGradient id="paint3_linear_68_533" x1="0" y1="311" x2="934" y2="311" gradientUnits="userSpaceOnUse">
<stop stop-color="#6BBAFF"/>
<stop offset="1" stop-color="#0F6EC2"/>
</linearGradient>
<linearGradient id="paint4_linear_68_533" x1="0" y1="311" x2="934" y2="311" gradientUnits="userSpaceOnUse">
<stop stop-color="#6BBAFF"/>
<stop offset="1" stop-color="#0F6EC2"/>
</linearGradient>
<linearGradient id="paint5_linear_68_533" x1="0" y1="311" x2="934" y2="311" gradientUnits="userSpaceOnUse">
<stop stop-color="#6BBAFF"/>
<stop offset="1" stop-color="#0F6EC2"/>
</linearGradient>
<linearGradient id="paint6_linear_68_533" x1="0" y1="311" x2="934" y2="311" gradientUnits="userSpaceOnUse">
<stop stop-color="#6BBAFF"/>
<stop offset="1" stop-color="#0F6EC2"/>
</linearGradient>
</defs>
</svg>
