<svg width="934" height="622" viewBox="0 0 934 622" fill="none" xmlns="http://www.w3.org/2000/svg">
<g id="R2">
<path fill-rule="evenodd" clip-rule="evenodd" d="M33.4536 0L890.889 491.507L890.614 491.987L33.1786 0.480225L33.4536 0Z" fill="url(#paint0_linear_68_532)"/>
<path fill-rule="evenodd" clip-rule="evenodd" d="M85.4327 126.741L883.124 500.906L882.889 501.407L85.1979 127.242L85.4327 126.741Z" fill="url(#paint1_linear_68_532)"/>
<path fill-rule="evenodd" clip-rule="evenodd" d="M30.0728 202.001L899.678 449.969L899.526 450.501L29.9211 202.533L30.0728 202.001Z" fill="url(#paint2_linear_68_532)"/>
<path fill-rule="evenodd" clip-rule="evenodd" d="M0.250244 148.884L824.494 567.33L824.244 567.823L0 149.378L0.250244 148.884Z" fill="url(#paint3_linear_68_532)"/>
<path fill-rule="evenodd" clip-rule="evenodd" d="M79.884 74.7046L934 407.911L933.799 408.427L79.6831 75.2203L79.884 74.7046Z" fill="url(#paint4_linear_68_532)"/>
<path fill-rule="evenodd" clip-rule="evenodd" d="M331.139 99.1356L781.43 621.639L781.011 622L330.72 99.4971L331.139 99.1356Z" fill="url(#paint5_linear_68_532)"/>
<path fill-rule="evenodd" clip-rule="evenodd" d="M16.8 280.599L828.874 524.138L828.715 524.669L16.6412 281.129L16.8 280.599Z" fill="url(#paint6_linear_68_532)"/>
</g>
<defs>
<linearGradient id="paint0_linear_68_532" x1="934" y1="311" x2="0" y2="311" gradientUnits="userSpaceOnUse">
<stop stop-color="#6BBAFF"/>
<stop offset="1" stop-color="#0F6EC2"/>
</linearGradient>
<linearGradient id="paint1_linear_68_532" x1="934" y1="311" x2="0" y2="311" gradientUnits="userSpaceOnUse">
<stop stop-color="#6BBAFF"/>
<stop offset="1" stop-color="#0F6EC2"/>
</linearGradient>
<linearGradient id="paint2_linear_68_532" x1="934" y1="311" x2="0" y2="311" gradientUnits="userSpaceOnUse">
<stop stop-color="#6BBAFF"/>
<stop offset="1" stop-color="#0F6EC2"/>
</linearGradient>
<linearGradient id="paint3_linear_68_532" x1="934" y1="311" x2="0" y2="311" gradientUnits="userSpaceOnUse">
<stop stop-color="#6BBAFF"/>
<stop offset="1" stop-color="#0F6EC2"/>
</linearGradient>
<linearGradient id="paint4_linear_68_532" x1="934" y1="311" x2="0" y2="311" gradientUnits="userSpaceOnUse">
<stop stop-color="#6BBAFF"/>
<stop offset="1" stop-color="#0F6EC2"/>
</linearGradient>
<linearGradient id="paint5_linear_68_532" x1="934" y1="311" x2="0" y2="311" gradientUnits="userSpaceOnUse">
<stop stop-color="#6BBAFF"/>
<stop offset="1" stop-color="#0F6EC2"/>
</linearGradient>
<linearGradient id="paint6_linear_68_532" x1="934" y1="311" x2="0" y2="311" gradientUnits="userSpaceOnUse">
<stop stop-color="#6BBAFF"/>
<stop offset="1" stop-color="#0F6EC2"/>
</linearGradient>
</defs>
</svg>
